<?xml version="1.0" standalone="no"?>
<!DOCTYPE svg PUBLIC "-//W3C//DTD SVG 20010904//EN"
 "http://www.w3.org/TR/2001/REC-SVG-20010904/DTD/svg10.dtd">
<svg version="1.0" xmlns="http://www.w3.org/2000/svg"
 width="960.000000pt" height="960.000000pt" viewBox="0 0 960.000000 960.000000"
 preserveAspectRatio="xMidYMid meet">
<metadata>
Created by potrace 1.14, written by Peter Selinger 2001-2017
</metadata>
<g transform="translate(0.000000,960.000000) scale(0.100000,-0.100000)"
fill="#000000" stroke="none">
<path d="M0 4800 l0 -4800 4100 0 c3883 0 4100 1 4109 18 10 16 10 16 11 0 0
-16 12 -18 104 -18 l105 0 -10 32 c-15 53 -10 56 13 11 l22 -43 573 0 573 0 0
4800 0 4800 -4800 0 -4800 0 0 -4800z m3117 4218 c-3 -8 -6 -5 -6 6 -1 11 2
17 5 13 3 -3 4 -12 1 -19z m103 -43 c0 -8 -4 -15 -10 -15 -5 0 -10 7 -10 15 0
8 5 15 10 15 6 0 10 -7 10 -15z m-40 -15 c0 -5 -7 -10 -15 -10 -8 0 -15 5 -15
10 0 6 7 10 15 10 8 0 15 -4 15 -10z m-592 -363 c9 -8 26 -17 37 -19 12 -2 19
-10 17 -21 -2 -13 4 -17 24 -17 15 0 24 -3 21 -7 -4 -3 -2 -12 4 -20 9 -10 8
-13 -4 -13 -8 0 -20 7 -28 16 -7 9 -21 13 -33 10 -30 -8 -156 5 -156 16 0 5 4
6 10 3 5 -3 18 -1 27 4 15 9 12 10 -15 11 -36 0 -35 19 1 21 17 1 18 2 5 6
-10 2 -18 10 -18 17 0 17 87 12 108 -7z m2010 -40 c32 2 34 1 12 -6 -19 -7 -8
-9 45 -9 73 0 160 -17 185 -36 26 -20 114 -60 140 -64 14 -2 53 -17 87 -34 66
-32 105 -77 118 -136 6 -31 9 -33 38 -27 24 5 28 4 17 -4 -11 -8 -11 -11 -2
-11 7 0 22 -20 32 -44 11 -24 27 -49 36 -57 9 -7 26 -36 38 -64 13 -27 35 -61
49 -75 15 -14 27 -31 27 -37 0 -7 5 -13 10 -13 6 0 14 -8 18 -18 4 -10 33 -57
65 -103 57 -86 111 -214 136 -329 7 -30 19 -73 26 -95 74 -223 95 -321 95
-447 0 -52 4 -88 10 -88 6 0 10 11 10 25 0 22 2 24 20 13 21 -14 36 -6 24 13
-4 7 -9 33 -11 58 -2 24 -9 54 -16 65 -19 30 -42 133 -42 186 0 36 7 55 35 92
39 53 75 67 116 46 26 -12 73 -78 56 -78 -4 0 -2 -4 4 -8 5 -4 18 -37 28 -73
10 -37 24 -79 32 -94 8 -15 14 -35 14 -45 0 -10 7 -24 17 -31 19 -16 143 -22
143 -7 0 6 -6 8 -14 5 -23 -9 -39 18 -21 33 16 13 21 35 6 26 -13 -8 -42 4
-35 15 3 5 16 9 29 9 30 0 41 16 19 28 -12 7 -15 18 -12 41 3 24 1 31 -9 27
-7 -3 -13 -2 -13 3 0 15 52 23 60 10 4 -6 12 -9 18 -5 17 10 64 -42 57 -64 -4
-14 -1 -22 10 -26 10 -4 15 -14 12 -26 -4 -12 -1 -18 6 -15 7 2 12 10 12 17 0
7 10 14 23 15 15 1 22 -4 22 -17 0 -17 14 -22 52 -19 9 1 23 -8 32 -20 8 -13
18 -20 22 -16 10 10 44 -12 44 -27 0 -9 7 -12 19 -9 16 4 19 1 14 -19 l-5 -23
17 23 c19 26 40 20 25 -8 -7 -13 -6 -19 6 -24 8 -3 12 -2 9 4 -3 6 -2 10 4 10
5 0 12 -4 16 -9 8 -14 45 -9 45 6 0 7 5 13 10 13 17 0 11 28 -9 42 -19 14 -22
65 -3 77 5 3 12 18 16 34 5 20 12 27 29 26 12 0 16 -3 10 -6 -7 -2 -13 -12
-13 -21 0 -11 3 -13 8 -6 4 6 27 15 52 19 25 4 51 12 58 17 6 6 12 7 12 3 0
-5 9 0 20 10 11 10 20 24 20 31 0 7 -8 10 -20 7 -11 -3 -20 -8 -20 -12 0 -4
-18 -5 -40 -3 -22 2 -40 8 -40 13 0 5 -9 9 -20 9 -11 0 -20 5 -20 10 0 6 5 10
10 10 6 0 10 10 10 22 0 40 39 144 72 191 11 16 18 31 15 34 -4 3 0 12 8 19
21 21 9 42 -21 36 -16 -3 -23 -9 -20 -18 3 -8 1 -14 -4 -14 -6 0 -10 5 -10 10
0 6 -7 10 -15 10 -9 0 -18 7 -21 15 -8 21 -24 19 -25 -2 0 -16 -1 -16 -8 1 -5
14 -10 16 -15 8 -8 -13 -27 -16 -25 -4 4 25 -4 31 -41 29 -22 -1 -40 -5 -40
-9 0 -4 -16 -8 -35 -8 -19 0 -35 -5 -35 -11 0 -5 5 -7 10 -4 6 3 10 1 10 -4 0
-18 -35 -12 -59 10 l-23 22 7 -22 c6 -20 5 -21 -14 -9 -30 18 -47 -2 -23 -28
22 -23 18 -52 -4 -33 -8 6 -12 15 -9 19 8 14 -79 31 -128 26 -26 -4 -47 -2
-47 3 0 13 37 20 76 14 22 -4 34 -2 34 6 0 6 -9 11 -20 11 -11 0 -20 7 -20 15
0 8 -6 12 -13 9 -8 -3 -18 6 -25 21 -12 27 -59 38 -49 11 6 -15 -18 -30 -33
-21 -5 3 -11 1 -15 -5 -10 -15 -35 -12 -35 5 0 8 7 15 15 15 8 0 15 3 15 8 0
4 -18 6 -40 4 -36 -4 -49 -22 -15 -22 7 0 18 -14 24 -32 12 -35 5 -53 -10 -25
-7 12 -17 16 -31 11 -28 -9 -78 -11 -78 -4 0 3 5 11 12 18 6 6 9 15 5 19 -4 3
-14 -2 -21 -13 -12 -15 -17 -17 -27 -6 -7 6 -21 12 -31 12 -17 0 -23 16 -19
48 1 6 -5 12 -12 12 -8 0 -17 9 -20 21 -8 28 26 39 93 28 36 -6 58 -5 67 3 8
6 13 7 13 0 0 -11 36 -23 44 -14 3 3 1 11 -5 19 -9 10 -8 13 0 13 7 0 9 5 6
10 -10 16 11 12 25 -5 11 -13 10 -14 -6 -9 -13 5 -16 4 -9 -3 6 -6 47 -13 92
-15 70 -4 80 -3 76 11 -4 13 -2 12 10 -2 16 -20 66 -19 104 1 12 7 40 11 62 9
22 -2 72 0 112 4 67 8 103 1 119 -21 3 -4 34 -19 70 -33 59 -23 72 -25 140
-17 70 8 76 7 92 -13 10 -13 18 -40 18 -64 0 -24 3 -43 8 -43 4 0 7 -17 8 -37
0 -21 4 -85 8 -143 8 -112 8 -140 3 -320 -3 -137 -14 -168 -58 -162 -17 3 -29
0 -29 -7 0 -6 15 -11 33 -11 27 0 35 -6 49 -32 9 -18 19 -54 23 -79 11 -82
-32 -138 -46 -58 -3 19 -11 44 -18 57 -7 13 -13 40 -15 60 -2 32 -5 37 -24 34
-15 -2 -22 2 -22 12 0 18 -35 22 -45 6 -8 -13 -25 -3 -25 15 0 7 10 15 23 19
23 5 46 47 46 81 0 11 1 29 3 40 2 16 -3 21 -31 23 -19 2 -40 10 -48 18 -8 8
-20 14 -26 13 -9 0 -8 -2 1 -6 19 -8 14 -23 -8 -23 -11 0 -20 -6 -20 -14 0 -8
-13 -19 -30 -25 -34 -11 -42 -49 -15 -71 8 -7 15 -18 15 -25 0 -7 7 -15 15
-19 8 -3 15 -12 15 -21 0 -8 6 -15 14 -15 7 0 16 -9 19 -20 3 -13 0 -20 -9
-20 -8 0 -14 -10 -14 -26 0 -22 -2 -25 -15 -14 -12 10 -15 9 -15 -5 0 -35 -23
-95 -37 -95 -9 0 -11 -5 -7 -12 5 -9 2 -8 -9 1 -10 8 -18 12 -20 10 -22 -38
-26 -51 -20 -65 4 -10 0 -22 -11 -30 -17 -12 -17 -13 0 -22 16 -9 15 -10 -4
-16 -12 -4 -27 -16 -32 -26 -8 -16 -8 -18 5 -14 16 7 22 -4 28 -56 8 -58 18
-88 32 -94 9 -3 12 0 9 8 -4 9 4 13 25 12 26 -1 29 -4 25 -23 -4 -14 0 -25 13
-32 17 -10 17 -10 1 -11 -12 0 -18 -8 -18 -25 0 -15 5 -24 13 -22 6 1 12 -7
12 -18 1 -11 4 -25 7 -30 4 -6 3 -17 -2 -25 -14 -22 9 -54 58 -77 43 -20 47
-21 58 -5 15 20 18 72 5 72 -5 0 -16 14 -25 31 -12 23 -13 36 -4 55 6 13 14
24 18 24 4 0 10 10 14 23 3 12 9 18 13 12 7 -9 44 -11 96 -7 9 1 17 8 17 16 0
18 20 25 46 16 27 -10 37 -36 24 -60 -6 -10 -10 -37 -10 -60 0 -33 6 -46 35
-74 41 -40 53 -67 47 -107 -3 -23 -10 -30 -37 -35 -19 -3 -38 -3 -44 1 -6 3
-11 0 -11 -7 0 -7 -13 2 -28 20 -42 48 -57 43 -52 -18 3 -36 15 -54 46 -70 30
-16 74 -54 74 -64 0 -7 19 -31 70 -89 31 -36 34 -45 35 -103 0 -46 3 -63 12
-60 7 3 15 -4 18 -14 7 -23 43 -36 58 -21 13 13 87 15 87 2 0 -5 18 -12 39
-16 22 -3 49 -17 62 -31 12 -13 28 -24 35 -24 29 0 64 -25 74 -53 14 -41 -13
-89 -54 -94 -44 -6 -96 -30 -97 -45 -1 -7 -1 -19 0 -26 1 -7 -9 -26 -23 -43
-15 -18 -26 -43 -26 -60 0 -16 -5 -29 -10 -29 -23 0 18 -92 45 -103 6 -2 2 -3
-8 -1 -17 2 -47 -30 -47 -51 0 -5 4 -4 9 4 6 9 10 3 13 -19 4 -26 1 -34 -14
-38 -27 -7 -22 -22 7 -22 14 0 34 -9 46 -21 l21 -21 -24 4 c-17 2 -23 -2 -23
-17 0 -13 -8 -21 -22 -23 -15 -2 -23 -10 -23 -23 0 -22 25 -26 33 -6 3 9 16
12 39 9 l33 -5 -35 -12 c-33 -12 -31 -12 30 -8 43 4 70 11 79 22 10 12 15 13
18 4 5 -15 43 -18 43 -3 0 5 -11 12 -25 16 -21 5 -23 9 -14 21 8 9 21 12 36 8
16 -4 23 -1 23 9 0 8 -6 17 -12 19 -10 4 -9 8 2 16 19 14 90 14 90 1 0 -5 -6
-10 -12 -11 -10 0 -10 -2 0 -6 20 -8 14 -32 -14 -58 -26 -24 -25 -49 1 -38 18
6 18 -4 1 -36 -16 -29 -11 -47 16 -62 17 -9 18 -8 7 9 -17 27 -5 52 27 52 19
0 25 4 21 14 -4 10 8 22 35 36 32 17 39 18 35 6 -4 -10 3 -22 17 -31 20 -14
24 -24 25 -73 0 -47 -3 -60 -22 -75 -12 -9 -37 -29 -54 -43 -30 -23 -34 -24
-49 -10 -16 16 -26 20 -55 17 -10 -1 -19 8 -23 22 -7 29 -34 44 -31 19 1 -10
5 -25 9 -35 5 -10 6 -20 3 -24 -4 -3 4 -14 16 -24 18 -14 20 -20 9 -31 -11
-11 -16 -10 -28 6 -14 19 -14 19 -14 -1 0 -25 31 -55 37 -35 5 14 33 17 33 3
0 -6 -5 -13 -12 -17 -7 -5 -5 -11 7 -21 11 -7 13 -13 7 -13 -7 0 -12 -7 -12
-15 0 -8 -9 -15 -21 -15 -16 0 -19 4 -14 20 6 18 3 18 -21 -5 -29 -27 -44 -32
-44 -14 0 5 -4 8 -9 4 -13 -8 -94 -14 -104 -8 -4 3 -2 12 5 21 11 13 11 15 -3
10 -9 -4 -26 0 -38 8 -23 16 -29 6 -8 -15 10 -11 7 -12 -18 -7 -16 4 -48 15
-70 26 -22 10 -53 21 -70 25 -36 8 -137 47 -223 86 -35 16 -70 29 -77 29 -8 0
-17 5 -21 12 -5 8 0 9 14 6 12 -4 22 -2 22 3 0 5 -6 9 -14 9 -8 0 -22 3 -30 6
-12 5 -15 2 -10 -10 5 -12 2 -15 -10 -10 -10 4 -15 13 -12 20 4 11 -1 13 -19
8 -15 -4 -34 0 -49 9 -13 9 -39 19 -60 22 -20 4 -36 11 -36 16 0 5 -6 9 -14 9
-7 0 -62 25 -122 55 -60 30 -122 59 -139 63 -25 6 -36 20 -63 77 -18 38 -40
74 -47 79 -16 13 -42 102 -32 112 3 4 18 6 32 6 14 0 28 4 31 9 3 5 -4 9 -15
9 -12 0 -21 4 -21 9 0 15 18 23 25 11 8 -13 25 -13 25 0 0 6 -7 10 -15 10 -8
0 -15 5 -15 10 0 6 -4 10 -10 10 -5 0 -10 -7 -10 -15 0 -9 -9 -15 -22 -16 -21
0 -22 -1 -4 -8 19 -7 19 -8 -2 -13 -18 -5 -22 -2 -22 17 0 15 8 25 23 30 21 8
21 8 -5 12 -29 5 -37 18 -15 26 9 4 9 8 -2 15 -7 5 -27 37 -45 70 -64 126
-126 176 -269 217 -111 32 -167 41 -167 26 0 -7 13 -74 29 -149 16 -75 33
-157 36 -182 4 -25 15 -73 27 -108 19 -59 24 -65 93 -114 41 -28 76 -57 79
-65 3 -8 9 -12 14 -9 19 12 10 -63 -19 -152 -52 -158 -75 -199 -128 -229 -25
-15 -68 -46 -96 -69 -44 -36 -129 -98 -199 -144 -24 -16 -51 -35 -120 -86 -22
-17 -49 -33 -59 -37 -11 -4 -15 -12 -11 -18 4 -8 3 -9 -5 -5 -7 5 -29 -3 -51
-18 -30 -19 -50 -48 -91 -128 -28 -57 -69 -130 -90 -164 -49 -76 -78 -143
-119 -271 -18 -57 -36 -103 -40 -103 -4 0 -10 10 -13 23 -10 47 -67 190 -81
206 -9 10 -16 24 -16 32 0 12 -32 71 -101 189 -12 19 -29 44 -39 55 -10 11
-23 47 -29 79 -6 33 -20 69 -30 80 -11 12 -24 40 -30 63 -6 23 -17 44 -24 46
-6 3 8 4 33 3 31 -1 46 -7 48 -17 4 -20 74 -47 80 -30 2 7 9 5 20 -5 14 -15
17 -15 28 0 7 11 15 13 18 7 4 -6 15 -7 29 -2 13 5 36 7 53 4 l29 -5 -30 22
-30 22 40 -6 c22 -3 33 -2 25 2 -20 9 -25 49 -9 68 10 12 14 12 20 2 7 -10 9
-10 9 0 0 7 -9 20 -19 29 -11 9 -18 20 -15 24 9 16 -32 46 -52 38 -27 -11 -34
-10 -34 0 0 5 7 11 15 13 9 2 12 8 6 17 -7 11 -13 10 -35 -4 -18 -12 -30 -14
-39 -7 -21 18 -83 25 -107 12 -12 -6 -25 -9 -28 -5 -3 3 4 8 16 12 12 3 19 10
16 15 -3 5 -17 7 -31 3 -14 -3 -31 -1 -39 6 -11 9 -18 9 -26 1 -7 -7 -27 -12
-45 -12 -20 0 -40 -8 -52 -21 -14 -15 -34 -21 -82 -24 -34 -3 -67 -1 -73 4 -6
4 -23 11 -38 15 -15 3 -39 19 -54 34 -18 19 -25 21 -20 9 7 -21 1 -18 -62 30
-24 18 -56 33 -70 34 -15 0 -21 3 -14 6 19 7 14 21 -10 29 -36 11 -121 107
-172 194 -69 116 -150 310 -175 420 -20 85 -58 215 -76 263 -6 13 -3 16 9 11
8 -3 18 -14 21 -25 4 -10 13 -19 22 -19 10 0 13 -6 9 -16 -4 -11 9 -30 41 -61
27 -24 58 -54 70 -65 12 -12 19 -26 16 -32 -3 -6 -2 -8 2 -3 5 4 15 1 24 -7 9
-8 21 -15 26 -15 6 0 12 -15 15 -33 3 -22 8 -29 13 -20 7 9 15 8 38 -8 16 -12
28 -26 26 -32 -1 -6 13 -16 31 -22 18 -6 36 -16 40 -21 13 -19 53 -36 71 -30
10 3 25 -3 35 -14 10 -11 37 -25 62 -32 24 -7 44 -16 44 -20 0 -3 11 -4 24 -2
28 6 86 -25 80 -41 -3 -8 14 -12 51 -12 38 0 59 -4 66 -14 7 -12 11 -13 18 -2
5 8 30 15 60 16 32 2 56 8 62 17 7 11 9 11 9 -3 0 -28 23 -21 42 12 9 17 22
30 28 30 14 0 13 -17 -2 -23 -9 -4 -8 -6 3 -6 19 -1 69 22 69 32 0 11 -18 8
-26 -4 -4 -8 -9 -8 -17 0 -13 13 24 56 54 64 23 6 26 -8 3 -17 -8 -3 -12 -10
-9 -16 9 -14 25 -12 25 3 1 20 37 57 55 57 12 0 16 6 13 18 -3 10 4 24 17 34
20 15 25 15 41 3 18 -14 17 -14 -9 -15 -16 0 -26 -4 -22 -10 3 -6 17 -7 31 -4
13 3 24 2 24 -3 0 -14 -38 -33 -54 -27 -8 3 -17 0 -22 -7 -5 -9 2 -11 29 -6
38 6 87 48 87 74 0 8 5 11 10 8 6 -3 10 4 10 17 0 24 13 50 24 49 20 -3 26 0
21 9 -4 6 6 10 23 10 26 0 29 3 26 28 -2 15 -1 19 2 10 5 -15 11 -14 47 14 23
18 67 61 97 96 81 94 103 114 110 102 4 -6 13 -3 25 10 18 20 18 20 -5 18 -12
-2 -25 3 -27 10 -3 6 2 12 11 12 9 0 18 11 22 25 3 14 10 25 15 25 13 0 11
-24 -3 -38 -8 -8 -8 -12 -1 -12 6 0 16 7 24 16 10 12 10 20 1 35 -13 21 -16
75 -4 81 11 5 92 106 92 115 0 13 37 83 53 102 8 9 20 40 28 69 7 28 16 52 21
52 4 0 8 23 8 50 0 43 -2 49 -14 38 -10 -9 -11 -17 -4 -26 6 -7 8 -16 4 -19
-4 -4 -11 -1 -15 6 -7 11 -13 8 -26 -13 -20 -30 -41 -36 -25 -7 16 32 12 36
-10 8 -11 -14 -19 -31 -17 -39 2 -7 2 -9 -1 -5 -2 4 -11 2 -19 -4 -11 -10 -16
-10 -23 0 -4 8 -10 9 -13 4 -7 -12 -67 -4 -67 8 0 5 -7 9 -15 9 -8 0 -14 5
-13 11 2 6 -3 14 -9 16 -17 6 -17 -19 -1 -35 8 -8 9 -15 3 -20 -6 -4 -10 -24
-10 -44 0 -21 -1 -38 -3 -38 -1 0 -19 7 -38 15 -31 13 -35 13 -31 1 4 -9 -8
-5 -30 10 -40 27 -62 32 -43 9 17 -21 6 -30 -13 -11 -8 8 -17 13 -20 10 -12
-12 -28 7 -18 20 6 7 8 16 4 19 -3 4 -12 -1 -19 -11 -9 -13 -9 -19 -1 -24 9
-6 8 -11 -3 -18 -17 -11 -27 7 -30 55 -2 18 -4 23 -7 13 -5 -21 -8 -21 -33 -8
-17 9 -18 7 -13 -27 3 -20 15 -45 25 -55 11 -11 17 -26 14 -33 -3 -8 -1 -17 4
-20 16 -10 11 -28 -5 -21 -9 3 -15 0 -15 -10 0 -13 -3 -12 -24 1 -15 10 -27
12 -30 6 -4 -5 -2 -12 4 -16 18 -11 11 -27 -9 -20 -26 8 -34 -8 -16 -31 23
-30 17 -37 -12 -14 -26 20 -43 15 -43 -15 0 -5 5 -3 10 5 8 13 10 12 10 -2 0
-10 -7 -18 -15 -18 -8 0 -15 5 -15 11 0 7 -9 9 -24 5 -19 -5 -25 -1 -30 19 -4
14 -11 25 -16 25 -6 0 -8 -11 -4 -25 3 -14 2 -25 -4 -25 -5 0 -12 9 -15 20 -6
23 -27 27 -27 5 0 -8 -9 -15 -20 -15 -19 0 -20 4 -14 36 7 36 6 36 -14 18 -16
-13 -20 -26 -16 -53 2 -19 9 -40 14 -45 6 -6 10 -15 10 -20 -1 -6 -8 -2 -18
10 -10 11 -30 29 -45 38 -20 14 -25 24 -21 41 3 13 1 26 -5 29 -7 4 -11 -1
-11 -13 0 -27 -16 -27 -31 0 -8 15 -8 19 0 15 6 -4 11 0 11 9 0 9 -4 14 -9 10
-15 -9 -50 43 -44 65 3 11 9 20 15 20 5 0 4 -9 -2 -20 -8 -14 -8 -20 0 -20 6
0 16 14 21 30 6 17 15 30 20 30 5 0 9 6 9 13 0 7 14 29 30 47 33 37 36 45 18
56 -7 5 -8 3 -3 -7 5 -7 -4 -4 -20 9 -26 20 -30 21 -51 7 -13 -8 -67 -19 -121
-25 -54 -6 -136 -16 -183 -23 -47 -6 -111 -10 -142 -9 -46 1 -58 -1 -58 -13 0
-8 6 -15 14 -15 10 0 16 -13 18 -42 3 -37 7 -43 42 -61 28 -15 56 -20 97 -19
33 1 59 -3 59 -8 0 -15 26 -12 40 5 7 8 19 15 26 15 8 0 0 -13 -18 -29 -18
-16 -29 -33 -25 -37 4 -5 19 5 32 21 l25 30 20 -24 c23 -27 20 -37 -7 -23 -15
8 -18 6 -20 -11 -2 -12 -6 -46 -9 -74 -7 -60 -24 -72 -24 -17 0 31 -3 36 -20
31 -15 -4 -20 0 -20 14 0 10 -4 19 -8 19 -4 0 -8 -18 -7 -40 0 -42 13 -54 22
-20 6 23 23 27 23 6 0 -8 -7 -16 -15 -20 -16 -6 -18 -53 -2 -73 7 -9 5 -13 -6
-13 -20 0 -32 37 -35 113 -1 20 -7 37 -13 37 -5 0 -8 -4 -5 -9 10 -16 -11 -57
-39 -75 -31 -20 -43 -16 -20 7 19 19 20 34 1 18 -9 -8 -16 -8 -20 -2 -4 5 -2
12 4 16 12 7 4 25 -11 25 -6 0 -8 -4 -4 -9 3 -6 -4 -15 -15 -21 -11 -6 -20
-19 -20 -28 0 -10 -7 -28 -16 -40 -8 -12 -11 -22 -5 -22 5 0 18 18 27 40 12
27 21 37 28 30 7 -7 6 -14 -2 -22 -19 -19 -14 -29 13 -22 22 5 25 3 25 -20 0
-14 -10 -35 -22 -46 -30 -28 -36 -8 -6 22 l23 23 -24 3 c-13 2 -31 -3 -39 -12
-15 -15 -15 -16 0 -16 14 0 14 -3 0 -35 -16 -36 -33 -30 -26 9 2 11 2 15 -2 9
-9 -21 -26 -15 -19 7 4 11 2 20 -4 20 -6 0 -11 -12 -12 -27 0 -25 -1 -26 -9
-8 -7 18 -8 18 -15 -7 -4 -16 -11 -28 -17 -28 -5 0 -7 12 -4 28 13 64 16 86 9
72 -15 -35 -32 -42 -63 -28 -31 13 -39 32 -17 42 6 3 -1 2 -18 -1 -16 -3 -34
-12 -38 -20 -4 -7 -13 -13 -19 -13 -6 0 -2 12 7 27 12 18 14 28 7 31 -7 2 -12
8 -12 14 0 7 5 6 14 -1 10 -9 16 -8 26 4 7 9 10 18 6 22 -3 3 -6 1 -6 -5 0 -7
-5 -12 -11 -12 -6 0 -9 6 -6 13 2 6 -3 18 -12 24 -14 11 -13 12 8 10 14 -1 26
4 28 13 4 13 3 13 -6 0 -5 -8 -13 -11 -17 -7 -4 3 -1 14 6 22 10 12 10 21 2
39 -15 33 -87 47 -106 21 -8 -11 -27 -18 -52 -19 -31 -1 -41 3 -49 21 -5 13
-20 23 -35 25 -14 2 -25 8 -25 15 0 22 -17 28 -30 10 -12 -16 -13 -16 -18 3
-3 11 -13 20 -22 20 -9 0 -13 -4 -10 -10 3 -5 2 -10 -2 -10 -17 0 -33 24 -33
48 0 13 -4 20 -10 17 -5 -3 -11 0 -11 7 -1 7 -5 -5 -9 -27 -7 -39 -7 -39 -9
-7 -1 25 -7 35 -26 42 -14 5 -28 17 -31 25 -8 19 -34 20 -34 1 0 -8 9 -18 20
-21 11 -3 20 -10 20 -15 0 -5 -7 -7 -15 -4 -9 4 -15 0 -16 -7 0 -8 -4 -4 -9 9
-5 12 -15 22 -22 21 -10 0 -10 -2 0 -6 6 -2 12 -9 12 -14 0 -6 -4 -7 -10 -4
-5 3 -10 -2 -11 -12 0 -15 -2 -14 -11 5 -6 13 -16 21 -22 19 -7 -3 -10 12 -9
42 2 25 0 39 -3 31 -3 -8 -8 -22 -11 -30 -3 -8 -5 -23 -4 -32 1 -10 -3 -18 -8
-18 -6 0 -11 11 -11 24 0 13 -6 29 -14 35 -11 9 -14 4 -14 -31 -1 -34 -6 -46
-28 -62 -15 -11 -37 -22 -48 -23 -23 -4 -38 -23 -31 -40 3 -8 -5 -13 -20 -13
-16 0 -25 -6 -25 -15 0 -17 -35 -21 -45 -5 -3 6 -13 10 -21 10 -8 0 -14 -4
-14 -10 0 -5 10 -10 21 -10 18 0 19 -3 9 -14 -6 -8 -18 -12 -26 -9 -18 7 -18
-2 2 -21 20 -21 0 -21 -31 0 -25 17 -55 13 -55 -6 0 -6 5 -8 10 -5 17 11 40
-3 34 -20 -3 -8 -10 -15 -16 -15 -5 0 -6 5 -3 10 8 12 -5 13 -25 0 -12 -8 -12
-10 3 -16 9 -3 17 -12 17 -20 0 -8 10 -14 23 -14 20 -1 21 -2 5 -14 -31 -23
-21 -27 45 -17 4 0 7 10 7 21 0 11 5 20 11 20 12 0 1 -43 -12 -48 -5 -2 -7 -8
-4 -12 3 -5 23 -3 44 5 33 11 43 11 66 -1 32 -16 38 -17 31 -5 -4 5 -3 11 1
13 10 4 53 65 53 74 0 14 54 70 79 81 26 11 26 11 -10 12 -27 1 -40 -5 -52
-21 -8 -13 -18 -20 -23 -15 -4 4 -2 13 4 19 8 8 7 14 -6 24 -21 15 -7 32 16
18 9 -5 33 -7 52 -4 l34 5 -26 12 c-14 6 -35 9 -47 6 -12 -3 -21 -1 -21 6 0 6
8 11 18 11 10 0 23 13 31 33 14 31 14 32 18 7 3 -14 18 -37 33 -51 21 -20 25
-30 17 -38 -9 -9 -8 -14 3 -21 8 -5 15 -21 16 -37 4 -69 4 -69 13 -54 5 8 7
21 3 29 -3 10 -1 13 6 8 7 -4 12 -18 12 -31 0 -12 11 -33 25 -46 13 -13 25
-32 25 -41 0 -11 8 -18 20 -18 19 0 25 -14 20 -50 -1 -8 -14 -28 -29 -43 l-27
-28 -30 29 c-35 34 -57 36 -103 10 -20 -12 -37 -15 -45 -10 -6 5 -20 4 -33 -3
l-21 -11 24 -23 c15 -15 32 -21 44 -18 11 3 20 1 20 -4 0 -17 16 -9 26 14 6
12 9 17 7 10 -1 -7 2 -15 8 -18 5 -4 7 -11 3 -16 -3 -5 -10 -7 -15 -3 -6 3
-13 -3 -16 -15 -3 -12 -7 -21 -9 -21 -11 0 -50 27 -62 43 -16 21 -30 21 -73 0
l-34 -17 40 -7 c22 -4 42 -3 43 2 2 6 15 -2 29 -16 21 -20 23 -27 13 -40 -20
-24 11 -19 38 5 23 22 32 25 32 12 0 -5 -11 -14 -24 -21 -24 -13 -28 -44 -11
-84 6 -13 4 -16 -9 -11 -9 3 -16 15 -16 26 0 10 -4 16 -10 13 -15 -9 -12 -45
4 -45 19 0 28 -27 10 -34 -8 -3 -14 -12 -14 -20 0 -7 -11 -17 -25 -20 -17 -4
-25 -13 -23 -23 2 -11 -7 -19 -26 -24 -29 -8 -54 -1 -28 8 6 3 12 12 12 20 0
10 -6 13 -16 9 -9 -3 -20 -6 -26 -6 -6 0 -8 -6 -5 -14 5 -12 1 -13 -24 -4 -16
5 -29 17 -29 26 0 12 -3 13 -12 4 -8 -8 -8 -15 0 -25 10 -12 7 -12 -22 -3 -20
6 -32 15 -29 22 3 7 11 10 19 7 20 -7 17 4 -6 27 -16 16 -20 17 -20 5 0 -8 -4
-15 -10 -15 -5 0 -10 7 -10 15 0 8 -9 15 -20 15 -11 0 -20 -4 -20 -10 0 -5 -7
-10 -15 -10 -9 0 -15 -9 -15 -24 0 -14 -4 -28 -10 -31 -5 -3 -10 1 -10 9 0 9
-7 16 -16 16 -27 0 -54 -20 -54 -40 0 -14 -7 -20 -24 -20 -16 0 -26 -7 -29
-21 -4 -16 -10 -19 -28 -14 -21 7 -22 5 -15 -36 7 -49 30 -72 64 -66 12 2 22
0 22 -4 0 -5 -6 -9 -14 -9 -8 0 -13 -10 -13 -25 0 -29 14 -33 24 -7 10 26 29
42 50 41 10 0 13 -3 6 -6 -21 -8 -14 -25 7 -18 12 4 20 2 20 -5 0 -6 -4 -8
-10 -5 -6 4 -7 -6 -4 -25 5 -20 3 -30 -6 -30 -7 0 -10 7 -6 15 3 8 -3 19 -14
25 -24 13 -30 13 -30 -1 0 -5 5 -7 10 -4 16 10 12 -89 -5 -121 -14 -27 -13
-29 13 -40 18 -8 21 -13 10 -13 -9 -1 -19 -5 -22 -9 -9 -15 6 -51 23 -55 12
-4 11 -5 -4 -6 -15 -1 -21 -9 -22 -31 -1 -17 2 -30 8 -30 15 0 40 27 37 41 -4
14 39 22 47 9 3 -5 -1 -7 -9 -4 -10 4 -17 -2 -21 -18 -6 -24 -51 -52 -60 -37
-3 4 -13 5 -22 2 -13 -5 -15 -3 -9 13 14 34 12 46 -11 55 -19 7 -23 5 -23 -11
0 -11 -5 -20 -11 -20 -8 0 -8 -4 -1 -13 8 -10 6 -13 -9 -14 -10 -1 -19 5 -19
13 0 8 -5 14 -11 14 -5 0 -9 -8 -8 -17 3 -35 -1 -43 -23 -44 -16 -1 -18 -3 -6
-6 9 -2 33 3 53 11 34 14 37 14 31 0 -18 -47 -18 -65 0 -79 18 -14 18 -14 -3
-15 -12 0 -25 -4 -28 -10 -3 -6 4 -10 17 -10 13 0 29 9 36 20 9 15 19 19 36
14 14 -3 29 0 39 10 13 14 16 14 21 1 3 -10 -1 -15 -13 -15 -10 0 -21 -6 -24
-13 -3 -7 -24 -19 -48 -27 -24 -8 -69 -26 -99 -41 -57 -28 -78 -30 -44 -4 17
13 17 14 2 15 -10 0 -18 4 -18 8 0 13 -123 3 -132 -11 -4 -6 -10 -8 -15 -4 -9
10 16 27 40 27 9 0 17 5 17 10 0 6 7 10 15 10 8 0 12 6 9 14 -5 12 -9 11 -25
-5 -10 -10 -26 -19 -36 -19 -14 0 -14 2 2 20 21 23 4 28 -19 5 -8 -8 -21 -12
-29 -9 -8 3 -18 1 -21 -4 -3 -6 -14 -8 -24 -6 -10 3 -31 -8 -52 -27 -19 -18
-27 -30 -17 -26 9 3 17 2 17 -3 0 -6 -4 -10 -9 -10 -5 0 -12 -18 -16 -40 -4
-22 -12 -43 -17 -47 -8 -4 -9 4 -5 23 7 36 -5 59 -26 51 -13 -5 -15 1 -10 29
5 29 3 34 -15 34 -13 0 -22 9 -26 25 -9 35 -24 31 -34 -7 -7 -29 -12 -33 -36
-30 -17 2 -26 0 -22 -6 3 -6 2 -13 -4 -17 -5 -3 -10 -1 -10 5 0 8 -12 10 -32
6 -18 -3 -27 -3 -20 0 16 8 15 24 -2 24 -16 0 -28 -37 -15 -46 12 -7 -20 -63
-43 -75 -15 -8 -18 -5 -18 16 0 19 -5 25 -21 25 -17 0 -19 -3 -10 -14 8 -10 9
-16 1 -21 -15 -9 -33 44 -20 60 7 9 7 15 1 19 -5 4 -14 -1 -19 -10 -5 -9 -14
-14 -21 -10 -16 11 -13 29 4 22 8 -3 15 -1 15 3 0 5 -6 11 -12 14 -7 2 -9 8
-5 13 4 5 12 2 17 -5 5 -9 15 -11 26 -7 11 4 14 10 8 14 -6 4 -13 15 -17 25
-7 19 -38 22 -69 6 -20 -11 -21 -12 -4 -25 10 -7 16 -18 14 -25 -3 -8 -9 -6
-21 5 -9 10 -18 15 -18 12 -1 -3 -3 -10 -4 -16 -1 -5 -3 -16 -4 -22 -1 -10 -4
-9 -10 1 -5 7 -14 10 -20 7 -6 -4 -11 -2 -11 3 0 6 6 11 14 11 30 0 43 36 32
85 -6 25 -14 45 -19 45 -5 0 -5 -9 -2 -20 5 -15 2 -20 -10 -20 -11 0 -15 5
-11 15 6 17 2 18 -32 9 -18 -5 -20 -9 -11 -20 9 -11 8 -14 -4 -14 -14 0 -37
28 -37 44 0 3 12 6 26 6 21 0 25 4 22 23 -2 14 -11 23 -25 25 -17 3 -21 0 -17
-12 4 -10 1 -16 -7 -16 -16 0 -41 -48 -32 -63 3 -5 -1 -14 -8 -19 -11 -8 -10
-9 3 -4 10 3 30 -1 45 -9 22 -12 24 -15 10 -21 -28 -10 -19 -25 11 -18 l27 7
-21 -24 c-35 -39 -37 -49 -18 -64 15 -10 22 -11 34 -2 13 10 13 10 2 -5 -9
-11 -24 -16 -40 -14 -15 2 -19 1 -9 -1 25 -6 22 -41 -5 -45 -16 -2 -23 -10
-25 -29 -2 -31 29 -54 55 -41 23 12 42 4 42 -17 0 -9 6 -23 13 -30 10 -11 7
-13 -15 -9 -19 4 -25 1 -21 -9 3 -7 18 -13 34 -13 42 0 28 -22 -29 -44 -139
-54 -252 -109 -252 -122 0 -6 -12 -21 -26 -35 -14 -13 -32 -36 -40 -51 -21
-41 -44 -36 -44 8 0 21 -4 33 -10 29 -6 -3 -10 -1 -10 4 0 6 5 11 11 11 6 0 9
6 6 14 -4 11 1 13 21 10 26 -5 26 -4 7 9 -11 8 -34 18 -52 21 -17 4 -34 13
-36 20 -9 24 5 136 17 136 7 0 13 14 14 31 2 20 -1 28 -9 24 -14 -9 -60 15
-53 27 3 4 10 6 15 3 8 -5 13 9 7 18 -2 2 3 11 11 20 9 12 10 17 2 17 -6 0
-15 10 -20 22 -9 26 6 58 28 58 12 0 12 -3 3 -12 -7 -7 -12 -17 -12 -22 0 -6
5 -5 12 2 14 14 18 72 5 72 -13 0 1 51 20 73 18 19 9 37 -9 19 -19 -19 -48
-15 -48 7 0 12 -9 21 -26 25 -22 6 -25 11 -20 31 5 18 2 25 -9 25 -8 0 -15 -5
-15 -11 0 -5 -5 -7 -12 -3 -8 5 -6 11 7 20 10 7 22 11 28 7 6 -4 8 2 5 15 -4
12 -2 25 3 28 16 9 -1 24 -27 24 -17 0 -24 5 -24 20 0 11 5 20 10 20 6 0 10 5
10 11 0 6 -6 9 -12 6 -47 -17 -58 -18 -52 -4 8 21 78 17 82 -5 2 -11 -3 -18
-13 -18 -9 0 -14 -4 -11 -9 3 -5 15 -7 27 -4 14 4 22 0 25 -15 4 -14 12 -18
25 -15 11 3 18 11 15 18 -6 17 13 35 30 28 8 -3 14 0 14 6 0 6 -3 11 -8 11
-11 0 -32 75 -21 78 15 6 10 22 -6 22 -12 0 -14 7 -9 27 4 16 11 32 15 38 5 5
9 22 9 37 0 15 5 28 10 28 6 0 10 7 10 15 0 8 -4 15 -10 15 -5 0 -10 -7 -10
-15 0 -8 -4 -15 -10 -15 -5 0 -10 -11 -10 -24 0 -37 -18 -78 -33 -73 -6 2 -11
11 -9 20 2 14 -1 15 -23 7 -16 -6 -25 -6 -25 0 0 6 5 10 12 10 6 0 9 3 6 6 -4
3 -16 0 -28 -6 -15 -8 -20 -8 -16 -1 4 6 0 11 -9 11 -12 0 -15 6 -10 21 5 14
3 19 -3 15 -14 -8 -4 63 11 82 7 8 7 16 1 20 -16 12 -13 46 7 60 25 18 24 32
-3 33 l-23 0 23 10 c14 5 21 14 18 21 -3 7 -9 21 -12 31 -4 9 -10 17 -15 17
-5 0 -9 10 -9 23 0 13 -4 27 -9 32 -5 6 -12 25 -16 43 -5 24 -3 33 9 38 9 3
16 12 16 20 0 8 6 13 13 11 7 -1 12 10 12 31 0 18 6 36 13 41 11 7 11 9 -2 14
-9 4 -16 14 -16 23 0 9 -9 29 -21 45 -11 16 -17 29 -13 29 4 0 -1 9 -11 20
-15 17 -16 23 -5 52 8 18 21 40 29 49 9 9 31 35 50 58 19 22 40 41 47 41 21 0
75 128 55 131 -34 4 -71 3 -71 -2 0 -4 -7 -10 -16 -13 -17 -6 -88 37 -77 47 3
4 2 7 -4 7 -6 0 -26 15 -45 33 -20 17 -44 37 -54 44 -18 12 -18 13 -1 26 9 8
15 21 12 29 -3 8 1 21 10 28 13 11 15 9 15 -9 0 -11 4 -21 9 -21 4 0 6 11 3
25 -2 14 -8 25 -13 25 -17 0 -9 37 13 63 l23 26 26 -22 c14 -12 29 -30 32 -39
3 -9 17 -18 32 -20 39 -5 29 -23 -10 -20 -40 4 -48 -14 -10 -24 14 -3 25 -10
25 -15 0 -5 6 -9 14 -9 7 0 25 -9 39 -20 14 -11 32 -20 41 -20 17 0 76 -53 76
-69 0 -5 11 -12 25 -15 14 -4 25 -12 25 -20 0 -7 8 -20 18 -29 10 -9 28 -37
41 -62 27 -55 58 -60 84 -16 18 30 67 49 67 25 0 -7 9 -16 21 -19 11 -4 18
-13 15 -20 -2 -7 3 -16 12 -20 14 -5 14 -7 2 -15 -12 -8 -12 -14 2 -43 16 -33
17 -34 65 -27 63 9 93 22 119 52 32 38 34 43 23 79 -14 51 -48 70 -157 85 -54
8 -109 19 -124 25 -15 6 -33 9 -40 6 -19 -7 -50 13 -44 28 2 8 -4 16 -17 19
-15 4 -18 9 -10 14 6 4 13 20 15 36 2 24 -1 31 -21 36 -14 3 -26 11 -27 18 -1
7 0 8 2 3 4 -7 13 -6 25 2 16 10 21 9 28 -2 14 -23 44 -5 37 22 -3 12 -6 32
-6 45 0 14 -9 27 -25 34 -26 12 -55 88 -50 133 1 14 -2 22 -6 19 -5 -3 -9 1
-9 9 0 7 -9 23 -21 36 -12 12 -23 35 -26 52 -3 24 4 37 40 75 36 38 48 46 68
41 34 -9 57 -54 64 -127 5 -59 15 -89 37 -114 5 -6 18 -26 28 -43 15 -26 26
-33 50 -33 31 0 38 6 100 79 36 43 58 96 59 144 1 15 6 27 12 27 5 0 7 5 4 10
-9 15 55 70 80 70 5 0 3 -5 -5 -10 -8 -5 -13 -10 -10 -11 3 0 15 -2 28 -5 12
-2 22 1 22 7 0 8 4 8 13 0 8 -6 17 -8 21 -4 4 4 9 -3 13 -15 4 -16 13 -22 34
-22 25 0 29 -4 29 -30 0 -22 4 -28 15 -24 10 4 15 0 15 -14 0 -16 9 -22 43
-27 35 -7 39 -9 20 -16 -15 -5 -23 -20 -28 -48 -4 -23 -10 -41 -13 -41 -7 0
-32 -48 -32 -61 0 -3 19 -5 43 -4 53 2 67 -9 67 -51 0 -56 22 -48 107 39 15
15 38 27 51 27 14 0 21 4 17 11 -4 6 3 13 15 16 23 6 40 39 40 79 0 13 6 25
13 26 6 0 19 2 27 2 8 1 14 7 13 13 -1 6 19 16 45 23 123 33 152 42 152 51 0
5 7 9 15 9 11 0 14 9 11 38 -7 56 -17 82 -32 82 -8 0 -14 5 -14 10 0 6 7 10
15 10 8 0 17 15 21 37 4 21 13 43 20 50 17 17 41 16 48 -2 3 -8 12 -15 20 -15
7 0 16 -6 19 -14 5 -11 -1 -12 -30 -3 -31 10 -37 9 -49 -8 -21 -29 -17 -63 22
-176 19 -57 38 -112 41 -121 3 -9 11 -19 18 -22 10 -3 14 22 16 114 3 81 8
123 17 132 11 11 15 10 23 -4 14 -26 29 -22 29 8 0 16 4 23 11 18 6 -3 9 -19
5 -35 -3 -18 -1 -28 5 -26 22 4 37 -68 38 -179 1 -130 11 -153 58 -137 27 10
31 8 49 -18 10 -16 22 -29 27 -29 4 0 7 -9 7 -20 0 -11 5 -20 10 -20 6 0 10
-10 10 -22 0 -20 19 -64 20 -46 0 25 -23 108 -31 108 -5 0 -9 9 -9 20 0 11 -4
20 -10 20 -5 0 -10 7 -10 15 0 8 -4 23 -10 33 -9 16 -45 111 -92 241 -11 30
-26 104 -34 165 -8 61 -19 134 -24 161 -5 28 -11 66 -12 85 -1 19 -4 40 -7 45
-7 13 -9 297 -2 310 3 5 6 16 7 25 14 99 15 101 75 225 37 76 146 237 184 270
6 6 24 28 40 50 15 22 33 45 40 50 14 12 75 101 75 110 0 3 16 31 35 61 19 30
35 59 35 64 0 5 20 26 45 47 25 20 45 42 45 48 0 11 69 52 81 48 3 -1 17 9 29
22 13 14 32 25 42 25 16 0 44 19 87 60 32 31 90 70 103 70 8 0 23 7 35 15 12
8 46 20 75 26 134 28 155 33 181 44 10 4 40 5 67 2 32 -4 52 -2 57 6 4 6 8 7
10 1 2 -5 20 -9 41 -7z m622 -297 c0 -5 -4 -10 -10 -10 -5 0 -10 5 -10 10 0 6
5 10 10 10 6 0 10 -4 10 -10z m840 -525 c18 -34 5 -43 -28 -18 -20 15 -33 18
-45 12 -13 -8 -15 -6 -11 5 4 9 -2 16 -18 19 -13 2 2 5 33 6 50 1 57 -2 69
-24z m48 -21 c-10 -10 -28 6 -28 24 0 15 1 15 17 -1 9 -9 14 -19 11 -23z m112
0 c0 -2 -9 -4 -21 -4 -11 0 -18 4 -14 10 5 8 35 3 35 -6z m47 0 c-3 -3 -12 -4
-19 -1 -8 3 -5 6 6 6 11 1 17 -2 13 -5z m8 -114 c3 -5 -1 -10 -9 -10 -9 0 -16
5 -16 10 0 6 4 10 9 10 6 0 13 -4 16 -10z m-3712 -19 c16 -6 17 -9 5 -18 -11
-9 -16 -8 -26 8 -13 20 -9 22 21 10z m-228 -11 c3 -5 1 -10 -4 -10 -6 0 -11 5
-11 10 0 6 2 10 4 10 3 0 8 -4 11 -10z m282 -16 c5 17 6 16 17 -5 7 -13 18
-23 24 -21 7 1 12 -4 12 -12 0 -11 -12 -14 -47 -13 -39 2 -48 6 -51 22 -3 16
-1 17 7 5 8 -12 11 -7 11 20 1 34 2 34 12 10 10 -22 12 -23 15 -6z m-206 7
c-20 -13 3 -23 35 -15 36 9 24 -9 -16 -26 -42 -17 -37 -31 10 -28 39 3 58 18
23 18 -13 0 -14 3 -5 8 19 13 102 14 102 2 0 -5 -9 -10 -21 -10 -11 0 -18 -4
-15 -9 3 -5 -3 -11 -14 -14 -13 -3 -18 -10 -14 -21 3 -9 1 -16 -5 -16 -6 0
-11 7 -11 15 0 21 -17 19 -29 -4 -6 -10 -19 -21 -29 -23 -22 -6 -74 31 -54 39
6 2 12 9 12 15 0 6 -6 5 -15 -2 -9 -7 -14 -19 -11 -25 2 -7 0 -18 -5 -26 -7
-11 -11 -11 -22 5 -8 10 -20 16 -28 13 -10 -4 -9 -6 4 -6 9 -1 17 -7 17 -15 0
-10 -7 -12 -22 -9 -36 9 -50 24 -38 39 9 9 6 13 -12 16 -22 4 -22 5 -3 13 25
11 47 32 43 41 -6 13 67 12 86 -2 29 -20 42 -17 22 5 -13 15 -14 20 -4 24 21
9 34 7 19 -2z m119 -11 c0 -5 -4 -10 -10 -10 -5 0 -10 5 -10 10 0 6 5 10 10
10 6 0 10 -4 10 -10z m-270 -20 c0 -5 -7 -10 -15 -10 -8 0 -15 5 -15 10 0 6 7
10 15 10 8 0 15 -4 15 -10z m3807 -6 c-3 -3 -12 -4 -19 -1 -8 3 -5 6 6 6 11 1
17 -2 13 -5z m53 -20 c0 -22 -18 -26 -29 -5 -15 27 -14 30 9 24 11 -3 20 -11
20 -19z m-3540 -12 c0 -13 -12 -22 -22 -16 -10 6 -1 24 13 24 5 0 9 -4 9 -8z
m3456 -8 c-9 -8 -21 -12 -27 -8 -13 7 7 24 29 24 10 0 10 -4 -2 -16z m304 6
c0 -5 -7 -10 -15 -10 -8 0 -15 5 -15 10 0 6 7 10 15 10 8 0 15 -4 15 -10z
m-155 -10 c3 -5 -1 -10 -9 -10 -9 0 -16 5 -16 10 0 6 4 10 9 10 6 0 13 -4 16
-10z m95 0 c0 -5 -5 -10 -11 -10 -5 0 -7 5 -4 10 3 6 8 10 11 10 2 0 4 -4 4
-10z m-210 -22 c0 -10 3 -9 9 1 7 11 12 11 31 -2 12 -8 30 -13 40 -10 16 4 18
1 15 -17 -5 -26 -15 -40 -15 -21 0 7 -4 9 -10 6 -5 -3 -10 1 -10 9 0 9 -4 16
-10 16 -5 0 -10 -4 -10 -10 0 -5 -20 -10 -44 -10 -28 0 -51 -6 -61 -17 -16
-16 -17 -15 -13 3 2 12 14 21 33 24 17 3 29 9 28 13 -6 15 -3 27 7 27 6 0 10
-6 10 -12z m160 -8 c0 -5 -5 -10 -11 -10 -5 0 -7 5 -4 10 3 6 8 10 11 10 2 0
4 -4 4 -10z m188 -2 c-5 -15 -48 -24 -48 -10 0 14 12 22 33 22 10 0 17 -5 15
-12z m-4173 -7 c9 -16 -9 -20 -23 -5 -10 12 -10 14 2 14 8 0 17 -4 21 -9z
m4089 -13 c4 -19 -9 -25 -19 -8 -9 14 -48 13 -63 -2 -7 -7 -12 -8 -12 -4 0 31
86 43 94 14z m158 10 c-17 -17 -15 -28 4 -28 9 0 12 -5 8 -12 -5 -8 -13 -5
-25 10 -10 14 -23 20 -33 16 -9 -3 -16 -1 -16 4 0 10 22 17 60 21 11 1 11 -2
2 -11z m-4012 -2 c0 -3 -4 -8 -10 -11 -5 -3 -10 -1 -10 4 0 6 5 11 10 11 6 0
10 -2 10 -4z m201 -10 c-6 -7 -9 -21 -5 -30 5 -12 2 -15 -10 -10 -9 3 -16 1
-16 -5 0 -14 -50 -60 -66 -61 -5 0 -20 -9 -33 -21 -26 -24 -42 -18 -17 6 20
20 20 34 1 41 -8 4 -15 18 -15 34 0 24 3 27 22 22 12 -3 17 -7 10 -10 -17 -5
-15 -31 3 -38 8 -4 12 -10 9 -15 -3 -5 2 -9 10 -9 16 0 66 42 66 56 0 4 10 18
22 31 23 25 38 32 19 9z m-51 -15 c0 -13 -29 -35 -37 -27 -3 3 -1 6 5 6 7 0
12 7 12 15 0 8 5 15 10 15 6 0 10 -4 10 -9z m3450 -26 c-7 -9 -28 -15 -49 -14
l-36 0 45 18 c49 21 60 20 40 -4z m275 -7 c-21 -13 -45 -19 -45 -12 0 6 41 23
55 23 6 0 1 -5 -10 -11z m285 2 c0 -5 -5 -10 -11 -10 -5 0 -7 5 -4 10 3 6 8
10 11 10 2 0 4 -4 4 -10z m-555 -30 c-3 -5 -1 -10 6 -10 7 0 10 -3 6 -6 -3 -3
-16 -2 -29 2 -22 7 -22 7 -3 15 27 10 27 10 20 -1z m349 -5 c-4 -8 -10 -15
-15 -15 -4 0 -6 7 -3 15 4 8 10 15 15 15 4 0 6 -7 3 -15z m-3951 -15 c3 -11 1
-18 -4 -14 -5 3 -9 12 -9 20 0 20 7 17 13 -6z m3527 0 c0 -5 -7 -10 -15 -10
-8 0 -15 5 -15 10 0 6 7 10 15 10 8 0 15 -4 15 -10z m474 -15 c-4 -8 -8 -15
-10 -15 -2 0 -4 7 -4 15 0 8 4 15 10 15 5 0 7 -7 4 -15z m-19 -33 c-8 -8 -25
10 -25 26 0 13 2 13 14 -4 8 -10 13 -21 11 -22z m-418 22 c-3 -3 -12 -4 -19
-1 -8 3 -5 6 6 6 11 1 17 -2 13 -5z m-3452 -14 c3 -5 -3 -10 -14 -10 -12 0
-21 5 -21 10 0 6 6 10 14 10 8 0 18 -4 21 -10z m3912 -26 c-3 -3 -12 -4 -19
-1 -8 3 -5 6 6 6 11 1 17 -2 13 -5z m48 -4 c-3 -5 -12 -10 -18 -10 -7 0 -6 4
3 10 19 12 23 12 15 0z m-3815 -23 c0 -8 -10 -22 -22 -33 -15 -12 -18 -13 -10
-3 7 9 10 24 6 33 -4 11 -1 16 10 16 9 0 16 -6 16 -13z m3883 -24 c-7 -2 -19
-2 -25 0 -7 3 -2 5 12 5 14 0 19 -2 13 -5z m-573 -43 c0 -5 -5 -10 -11 -10 -5
0 -7 5 -4 10 3 6 8 10 11 10 2 0 4 -4 4 -10z m470 -21 c0 -11 -7 -19 -17 -19
-15 0 -15 -1 0 -18 19 -21 23 -52 6 -52 -6 0 -8 7 -5 16 4 9 0 24 -9 34 -12
13 -13 21 -3 42 14 29 28 28 28 -3z m114 22 c3 -5 -1 -12 -10 -15 -20 -8 -29
-1 -19 13 8 13 22 14 29 2z m-563 -46 c5 4 9 -4 9 -17 l0 -22 -21 21 c-14 14
-19 26 -13 34 7 11 9 10 12 -4 2 -9 8 -15 13 -12z m-3612 -46 c-29 -24 -32
-30 -19 -40 13 -9 12 -10 -3 -5 -10 3 -25 6 -33 6 -26 0 3 39 41 55 19 7 35
20 36 27 0 10 2 10 6 0 3 -8 -10 -27 -28 -43z m4096 41 c3 -5 2 -10 -4 -10 -5
0 -13 5 -16 10 -3 6 -2 10 4 10 5 0 13 -4 16 -10z m94 -22 c-1 -24 -3 -27 -6
-10 -5 24 -13 28 -29 12 -6 -6 -15 -6 -24 0 -13 8 -12 10 3 10 9 0 17 5 17 10
0 6 9 10 20 10 16 0 20 -6 19 -32z m-525 -13 c-4 -8 -10 -12 -15 -9 -11 6 -2
24 11 24 5 0 7 -7 4 -15z m-3647 -31 c-3 -3 -12 -4 -19 -1 -8 3 -5 6 6 6 11 1
17 -2 13 -5z m3617 -10 c5 -14 4 -15 -9 -4 -17 14 -19 20 -6 20 5 0 12 -7 15
-16z m-3171 -249 c-3 -9 -8 -14 -10 -11 -3 3 -2 9 2 15 9 16 15 13 8 -4z
m5075 -98 c53 -49 63 -54 109 -56 85 -3 131 -38 175 -136 25 -55 26 -61 11
-72 -9 -7 -43 -13 -75 -13 -32 0 -58 -4 -58 -10 0 -5 -13 -10 -30 -10 -23 0
-30 -4 -30 -20 0 -25 -29 -40 -79 -40 -30 0 -41 4 -41 15 0 10 -10 15 -30 15
-20 0 -30 5 -30 15 0 8 -4 15 -10 15 -5 0 -10 -4 -10 -10 0 -15 -37 -12 -43 3
-3 8 -20 11 -53 8 l-49 -5 45 -7 c44 -6 44 -6 8 -7 -20 -1 -48 3 -62 9 -20 10
-28 9 -43 -6 -16 -17 -18 -17 -21 -2 -3 12 -13 17 -35 16 -31 -1 -31 -1 -7 -9
18 -7 10 -8 -30 -6 -30 2 -63 6 -72 9 -10 4 -25 9 -33 12 -8 2 -15 9 -15 15 0
14 27 13 34 -2 3 -7 4 -4 1 7 -4 18 1 20 57 21 44 1 65 6 73 18 18 24 53 20
57 -6 2 -17 9 -22 26 -20 13 2 25 -3 28 -12 11 -29 38 -17 56 24 l16 39 -31
-5 c-24 -4 -28 -3 -17 5 12 8 12 11 -4 17 -10 4 -27 2 -36 -4 -30 -19 -47 13
-49 94 -1 57 2 74 17 87 33 30 131 63 200 66 14 1 43 -18 80 -52z m-5003 -107
c8 -12 -3 -50 -15 -50 -10 0 -21 40 -14 52 7 11 22 10 29 -2z m3722 -96 c-3
-3 -12 -4 -19 -1 -8 3 -5 6 6 6 11 1 17 -2 13 -5z m1893 -44 c-19 -15 -48 -31
-63 -34 -39 -8 -77 2 -70 19 3 10 10 11 27 4 26 -12 74 3 82 26 4 8 18 15 33
15 l26 -1 -35 -29z m-5817 -17 c-7 -2 -19 -2 -25 0 -7 3 -2 5 12 5 14 0 19 -2
13 -5z m-69 -78 c3 -8 3 -22 0 -30 -7 -17 -44 -21 -44 -4 0 6 7 9 15 5 8 -3
15 -1 15 4 0 15 -47 12 -53 -2 -4 -9 -6 -8 -6 3 -1 8 11 20 27 26 37 15 39 15
46 -2z m-1211 -202 c-7 -2 -19 -2 -25 0 -7 3 -2 5 12 5 14 0 19 -2 13 -5z
m5866 -113 c50 -9 81 -28 81 -48 0 -5 9 -17 20 -27 11 -10 20 -23 20 -30 0
-18 -24 -64 -37 -69 -18 -7 -53 5 -53 19 0 16 -49 28 -107 27 -31 0 -43 4 -43
14 0 8 -5 14 -11 14 -6 0 -9 14 -7 32 2 26 11 37 43 55 48 27 32 25 94 13z
m-1629 -70 c0 -5 -5 -10 -11 -10 -5 0 -7 5 -4 10 3 6 8 10 11 10 2 0 4 -4 4
-10z m-107 -41 c-6 -6 -17 -8 -24 -3 -9 5 -8 9 7 14 23 9 31 3 17 -11z m-23
-15 c0 -3 -10 -18 -21 -32 -12 -15 -19 -20 -15 -12 3 8 9 23 12 33 6 16 24 25
24 11z m-1923 -51 c-3 -10 -5 -4 -5 12 0 17 2 24 5 18 2 -7 2 -21 0 -30z
m1626 -53 c-2 -3 -10 3 -17 12 -7 10 -15 16 -17 13 -3 -2 -5 5 -6 15 -2 17 2
16 22 -8 13 -15 21 -29 18 -32z m-1709 15 c9 -14 15 -25 13 -25 -2 0 -14 11
-27 25 -13 14 -19 25 -13 25 6 0 18 -11 27 -25z m1756 0 c7 -9 8 -15 2 -15 -5
0 -12 7 -16 15 -3 8 -4 15 -2 15 2 0 9 -7 16 -15z m-670 -15 c0 -11 -4 -20
-10 -20 -5 0 -10 9 -10 20 0 11 5 20 10 20 6 0 10 -9 10 -20z m44 -22 c3 -21
2 -38 -3 -38 -9 0 -20 67 -12 75 7 7 9 3 15 -37z m-1314 10 c0 -6 -6 -5 -15 2
-8 7 -15 14 -15 16 0 2 7 1 15 -2 8 -4 15 -11 15 -16z m1227 6 c-3 -3 -12 -4
-19 -1 -8 3 -5 6 6 6 11 1 17 -2 13 -5z m8 -24 c3 -5 1 -10 -4 -10 -6 0 -11 5
-11 10 0 6 2 10 4 10 3 0 8 -4 11 -10z m125 -11 c0 -6 -4 -7 -10 -4 -5 3 -10
11 -10 16 0 6 5 7 10 4 6 -3 10 -11 10 -16z m-73 -22 c2 -17 1 -19 -7 -7 -11
17 -14 47 -3 36 4 -3 8 -17 10 -29z m-1277 14 c0 -5 -7 -12 -16 -15 -14 -5
-15 -4 -4 9 14 17 20 19 20 6z m690 -20 c0 -12 -20 -25 -27 -18 -7 7 6 27 18
27 5 0 9 -4 9 -9z m3470 -22 c0 -14 -5 -19 -17 -17 -23 4 -28 25 -6 31 10 3
19 5 21 6 1 0 2 -8 2 -20z m-4148 -41 c-8 -8 -9 -4 -5 13 4 13 8 18 11 10 2
-7 -1 -18 -6 -23z m1247 -12 c8 -13 12 -29 10 -34 -2 -6 -12 5 -21 24 -20 38
-9 48 11 10z m46 14 c3 -5 1 -10 -4 -10 -6 0 -11 5 -11 10 0 6 2 10 4 10 3 0
8 -4 11 -10z m313 -2 c-2 -5 -8 -9 -13 -9 -5 0 -11 4 -13 9 -1 5 4 9 13 9 9 0
14 -4 13 -9z m-96 -33 c3 -14 1 -25 -3 -25 -5 0 -9 11 -9 25 0 14 2 25 4 25 2
0 6 -11 8 -25z m25 -27 c-2 -13 -4 -5 -4 17 -1 22 1 32 4 23 2 -10 2 -28 0
-40z m-207 22 c0 -5 -2 -10 -4 -10 -3 0 -8 5 -11 10 -3 6 -1 10 4 10 6 0 11
-4 11 -10z m-293 -75 c-7 -14 -15 -25 -19 -25 -12 0 -9 14 8 38 14 20 12 26
-8 23 -13 -2 -9 27 5 32 18 6 27 -39 14 -68z m643 45 c0 -11 -2 -20 -4 -20 -2
0 -6 9 -9 20 -3 11 -1 20 4 20 5 0 9 -9 9 -20z m-370 -31 c0 -5 -4 -9 -10 -9
-5 0 -10 7 -10 16 0 8 5 12 10 9 6 -3 10 -10 10 -16z m-180 -3 c0 -3 -4 -8
-10 -11 -5 -3 -10 -1 -10 4 0 6 5 11 10 11 6 0 10 -2 10 -4z m-420 -16 c0 -5
-5 -10 -11 -10 -5 0 -7 5 -4 10 3 6 8 10 11 10 2 0 4 -4 4 -10z m240 0 c0 -5
-4 -10 -10 -10 -5 0 -10 5 -10 10 0 6 5 10 10 10 6 0 10 -4 10 -10z m48 -45
c-2 -6 -7 -9 -12 -7 -4 1 -14 -3 -22 -9 -19 -16 -18 -4 2 16 17 17 38 17 32 0z
m-683 -24 c-6 -21 -25 -29 -25 -11 0 6 5 10 10 10 6 0 10 8 10 17 0 9 3 14 6
10 3 -3 3 -15 -1 -26z m795 -16 c0 -5 -5 -3 -10 5 -5 8 -10 20 -10 25 0 6 5 3
10 -5 5 -8 10 -19 10 -25z m4152 -4 c15 -1 33 -8 42 -16 17 -17 46 -20 46 -5
0 6 9 10 20 10 11 0 20 -4 20 -10 0 -5 15 -10 33 -11 l32 -1 -30 -9 c-16 -5
-40 -7 -52 -4 -13 3 -23 1 -23 -4 0 -5 -10 -7 -21 -4 -15 4 -27 -1 -40 -18
-10 -13 -19 -18 -19 -11 0 9 -5 10 -19 2 -11 -5 -28 -10 -39 -10 -22 0 -57 34
-48 49 3 5 1 11 -6 13 -6 2 -9 12 -5 21 4 12 16 15 44 12 21 -1 50 -3 65 -4z
m-5172 -7 c0 -3 -7 -12 -15 -21 -13 -13 -18 -13 -32 -2 -14 12 -13 14 8 20 33
9 39 10 39 3z m5355 -66 c2 -2 0 -17 -4 -34 -8 -25 -9 -26 -10 -6 -1 20 -4 21
-21 12 -21 -11 -60 2 -60 20 0 15 81 22 95 8z m-5315 -18 c0 -5 -5 -10 -11
-10 -5 0 -7 5 -4 10 3 6 8 10 11 10 2 0 4 -4 4 -10z m1850 -4 c0 -3 -4 -8 -10
-11 -5 -3 -10 -1 -10 4 0 6 5 11 10 11 6 0 10 -2 10 -4z m-1750 -21 c10 -12
10 -15 -3 -15 -8 0 -17 7 -21 15 -3 8 -2 15 3 15 5 0 14 -7 21 -15z m1696 -10
c-8 -9 -20 -24 -25 -33 -5 -9 -12 -14 -15 -12 -3 3 7 20 21 38 14 18 28 31 30
28 3 -3 -2 -12 -11 -21z m3341 19 c-3 -3 -12 -4 -19 -1 -8 3 -5 6 6 6 11 1 17
-2 13 -5z m-935 -37 c20 -32 -5 -97 -37 -97 -15 0 -45 43 -45 65 0 9 5 25 11
37 8 15 17 18 37 13 15 -4 30 -12 34 -18z m1105 -15 c6 -10 9 -31 6 -45 -6
-30 -37 -54 -48 -37 -3 5 3 10 14 10 17 0 21 6 21 30 0 17 -4 30 -10 30 -5 0
-10 7 -10 15 0 20 13 19 27 -3z m-5307 -27 c-29 -17 -50 -19 -50 -6 0 8 20 14
65 19 6 1 -1 -5 -15 -13z m1730 -5 c0 -5 -2 -10 -4 -10 -3 0 -8 5 -11 10 -3 6
-1 10 4 10 6 0 11 -4 11 -10z m-1712 -32 c-5 -13 -38 -20 -38 -8 0 8 17 18 33
19 5 1 7 -4 5 -11z m22 -68 c0 -5 -5 -10 -11 -10 -5 0 -7 5 -4 10 3 6 8 10 11
10 2 0 4 -4 4 -10z m-425 -20 c-3 -5 -13 -10 -21 -10 -8 0 -12 5 -9 10 3 6 13
10 21 10 8 0 12 -4 9 -10z m370 -20 c3 -6 -1 -7 -9 -4 -18 7 -21 14 -7 14 6 0
13 -4 16 -10z m240 -45 c-1 -31 1 -35 19 -33 14 2 20 -2 18 -11 -2 -8 3 -11
13 -8 24 10 17 -13 -7 -23 l-23 -9 23 -7 c20 -6 23 -11 18 -37 -3 -16 -6 -42
-6 -58 0 -19 -5 -29 -15 -29 -20 0 -105 -39 -129 -59 -14 -12 -20 -13 -23 -3
-3 6 -10 9 -16 5 -7 -3 -4 3 6 14 17 19 17 22 2 37 -24 23 -15 50 18 54 15 2
27 -2 27 -8 0 -6 -10 -8 -25 -4 -14 3 -25 2 -25 -4 0 -18 30 -34 55 -30 22 5
23 3 13 -10 -11 -13 -10 -14 2 -9 8 4 23 10 33 13 21 8 23 57 2 74 -22 18 -19
50 5 50 11 0 20 5 20 10 0 13 -13 13 -44 -1 -14 -7 -33 -8 -43 -4 -15 7 -13 9
12 14 19 4 31 13 33 26 4 20 4 20 -11 0 -12 -15 -18 -17 -27 -8 -17 15 -3 93
16 93 17 0 18 -12 3 -27 -6 -6 -8 -16 -5 -22 9 -14 46 -14 46 0 0 6 -7 9 -15
5 -20 -7 -19 5 2 31 23 28 29 23 28 -22z m-588 29 c-3 -3 -12 -4 -19 -1 -8 3
-5 6 6 6 11 1 17 -2 13 -5z m1928 -5 c11 -17 2 -18 -19 -3 -17 12 -17 14 -4
14 9 0 20 -5 23 -11z m-2042 -6 c-18 -7 -16 -32 2 -39 16 -7 21 -24 7 -24 -5
0 -18 8 -28 18 -25 22 -20 52 9 51 12 0 16 -3 10 -6z m211 -27 c-3 -9 -10 -16
-15 -16 -5 0 -18 -9 -29 -20 -11 -11 -25 -20 -31 -20 -6 0 -3 7 5 16 9 8 16
22 16 29 0 8 6 12 14 9 8 -3 20 1 27 9 17 18 22 16 13 -7z m562 -3 c-3 -3 -13
-2 -23 2 -17 7 -17 8 2 15 19 7 34 -5 21 -17z m-729 11 c-3 -3 -12 -4 -19 -1
-8 3 -5 6 6 6 11 1 17 -2 13 -5z m60 -26 c-3 -7 -5 -2 -5 12 0 14 2 19 5 13 2
-7 2 -19 0 -25z m268 2 c-5 -8 -11 -8 -17 -2 -6 6 -7 16 -3 22 5 8 11 8 17 2
6 -6 7 -16 3 -22z m-139 -17 c-11 -11 -17 4 -9 23 7 18 8 18 11 1 2 -10 1 -21
-2 -24z m81 5 c-4 -15 -14 -23 -29 -24 l-24 -2 26 28 c28 32 35 31 27 -2z
m248 22 c9 -14 -13 -50 -31 -50 -14 0 -14 2 0 15 8 9 13 22 10 30 -7 17 11 21
21 5z m3950 -10 c3 -5 1 -10 -4 -10 -6 0 -11 5 -11 10 0 6 2 10 4 10 3 0 8 -4
11 -10z m-3905 -19 c0 -12 -29 -35 -36 -28 -11 10 5 37 21 37 8 0 15 -4 15 -9z
m-573 -17 c-3 -3 -12 -4 -19 -1 -8 3 -5 6 6 6 11 1 17 -2 13 -5z m212 -13 c11
-7 9 -13 -8 -30 -25 -25 -31 -26 -31 -6 0 8 5 15 11 15 6 0 9 7 5 15 -6 17 2
19 23 6z m-249 -11 c0 -5 -5 -10 -11 -10 -5 0 -7 5 -4 10 3 6 8 10 11 10 2 0
4 -4 4 -10z m-82 -20 c7 -12 8 -20 2 -20 -5 0 -10 5 -10 11 0 8 -5 8 -15 -1
-16 -14 -18 -10 -9 14 8 21 17 20 32 -4z m52 -6 c0 -8 -7 -14 -15 -14 -15 0
-21 21 -9 33 10 9 24 -2 24 -19z m180 16 c0 -5 -5 -10 -11 -10 -6 0 -8 -9 -4
-20 5 -15 3 -18 -9 -14 -19 7 -19 9 -6 35 11 20 30 26 30 9z m438 -29 c-14
-23 -38 -36 -38 -21 0 6 5 10 11 10 8 0 7 6 -2 17 -13 15 -12 16 9 11 12 -4
22 -2 22 5 0 6 3 8 6 5 3 -3 0 -15 -8 -27z m-551 -13 c-3 -7 -5 -2 -5 12 0 14
2 19 5 13 2 -7 2 -19 0 -25z m633 -8 c0 -5 -7 -10 -15 -10 -8 0 -15 5 -15 10
0 6 7 10 15 10 8 0 15 -4 15 -10z m-440 -10 c0 -5 -4 -10 -10 -10 -5 0 -10 5
-10 10 0 6 5 10 10 10 6 0 10 -4 10 -10z m130 -4 c0 -2 3 -11 6 -20 4 -11 0
-16 -15 -16 -14 0 -19 5 -15 15 7 18 -7 20 -24 3 -8 -8 -12 -9 -12 -1 0 6 6
14 13 16 15 7 47 8 47 3z m4135 -35 c-3 -12 -11 -21 -16 -21 -14 0 -11 38 4
43 17 6 20 2 12 -22z m-4444 -4 c-10 -9 -11 -8 -5 6 3 10 9 15 12 12 3 -3 0
-11 -7 -18z m209 13 c0 -5 -7 -10 -15 -10 -8 0 -15 -7 -15 -15 0 -18 -21 -20
-38 -3 -17 17 -15 26 6 31 32 9 62 7 62 -3z m-1930 -10 c0 -5 -5 -10 -11 -10
-5 0 -7 5 -4 10 3 6 8 10 11 10 2 0 4 -4 4 -10z m1823 -4 c9 -7 17 -21 17 -30
0 -9 8 -16 18 -16 11 0 26 -8 35 -18 16 -17 15 -21 -18 -58 -19 -21 -35 -42
-35 -46 0 -15 23 -20 32 -7 7 11 11 11 15 1 2 -6 9 -10 14 -6 5 3 9 1 9 -5 0
-11 -38 -24 -61 -21 -31 5 -49 -1 -49 -15 0 -18 12 -19 28 -3 9 9 12 9 12 1 0
-17 -20 -27 -57 -30 -31 -2 -31 -1 -13 17 19 19 19 21 2 49 -14 25 -15 34 -4
51 6 11 12 26 12 34 0 7 14 19 30 26 32 13 40 30 14 30 -11 0 -14 6 -9 20 5
14 2 20 -10 20 -9 0 -13 -4 -10 -10 3 -5 1 -10 -4 -10 -6 0 -11 9 -11 20 0 23
17 25 43 6z m257 4 c0 -5 -4 -10 -10 -10 -5 0 -10 5 -10 10 0 6 5 10 10 10 6
0 10 -4 10 -10z m-65 -19 c3 -5 1 -12 -4 -15 -5 -3 -11 1 -15 9 -6 16 9 21 19
6z m-75 -21 c0 -22 -7 -25 -30 -10 -13 8 -12 10 3 10 10 0 15 5 12 10 -3 6 -1
10 4 10 6 0 11 -9 11 -20z m-240 -14 c0 -2 -10 -23 -22 -46 -14 -26 -24 -37
-26 -27 -4 19 25 77 38 77 6 0 10 -2 10 -4z m50 -4 c0 -4 -9 -13 -20 -20 -22
-13 -23 -12 -14 12 6 16 34 23 34 8z m50 -8 c0 -8 -4 -12 -10 -9 -5 3 -10 10
-10 16 0 5 5 9 10 9 6 0 10 -7 10 -16z m-1694 -14 c8 0 14 -4 14 -10 0 -5 -4
-10 -8 -10 -12 0 -32 22 -31 35 0 5 3 4 6 -2 2 -7 11 -13 19 -13z m1834 -10
c0 -5 -4 -10 -10 -10 -5 0 -10 5 -10 10 0 6 5 10 10 10 6 0 10 -4 10 -10z
m194 -17 c-19 -14 -19 -14 0 -29 11 -7 16 -17 13 -21 -4 -4 -14 3 -22 14 -17
24 -64 36 -82 21 -7 -5 -18 -8 -25 -5 -8 4 -7 6 5 6 9 1 17 6 17 12 0 7 12 9
34 5 23 -5 37 -2 46 9 7 8 17 12 23 8 6 -4 3 -12 -9 -20z m-127 -7 c-7 -14
-13 -23 -15 -21 -7 6 9 45 18 45 4 0 3 -11 -3 -24z m5271 -11 c6 -14 17 -25
25 -25 20 0 46 -36 36 -51 -10 -16 -129 -20 -130 -4 0 6 -6 -3 -13 -19 -14
-32 -7 -81 12 -81 6 0 21 -8 32 -17 11 -10 25 -18 30 -18 6 0 10 -7 10 -15 0
-9 6 -12 15 -9 8 4 15 1 15 -5 0 -6 -4 -11 -10 -11 -15 0 -12 -40 3 -41 10 0
10 -2 0 -6 -22 -8 -14 -23 22 -40 39 -19 55 -12 34 14 -13 15 -12 16 6 8 11
-4 35 -10 53 -13 24 -3 32 -9 32 -24 0 -17 3 -18 15 -8 10 9 15 9 15 1 0 -6 9
-11 20 -11 11 0 20 6 20 14 0 8 6 16 14 19 8 3 16 18 18 34 3 27 6 28 64 34
33 3 65 9 71 12 12 8 63 -14 63 -27 0 -5 -13 -6 -29 -3 -31 7 -41 -5 -41 -47
0 -30 -9 -37 -31 -26 -12 7 -20 7 -24 0 -3 -5 1 -10 9 -10 22 0 31 -21 13 -32
-24 -13 -9 -41 19 -35 20 4 24 0 24 -22 -1 -24 -2 -24 -14 -8 -16 21 -32 22
-40 1 -10 -25 -7 -30 19 -42 14 -7 30 -23 35 -37 5 -14 14 -25 20 -25 5 0 10
-10 10 -21 0 -16 -5 -20 -19 -16 -14 3 -18 1 -14 -9 3 -10 -3 -14 -20 -14 -16
0 -26 -7 -30 -19 -5 -19 -78 -48 -95 -37 -4 2 -8 -18 -10 -45 l-3 -49 40 -6
c27 -4 43 -14 52 -30 14 -27 29 -32 29 -9 0 21 32 35 79 35 43 0 57 -16 19
-22 -21 -3 -23 -8 -19 -48 3 -51 15 -70 41 -70 13 0 17 -6 13 -18 -2 -10 3
-24 11 -31 9 -8 16 -25 16 -38 0 -16 7 -27 20 -30 23 -6 26 -21 6 -29 -12 -5
-12 -10 0 -39 21 -50 18 -58 -16 -53 -33 5 -49 -7 -32 -24 8 -8 16 -7 27 2 19
16 19 1 1 -35 -8 -15 -12 -33 -9 -41 2 -7 -7 -29 -21 -50 l-25 -37 -10 34 c-9
32 -10 32 -16 11 -10 -30 -29 -23 -35 14 -7 39 -24 37 -28 -3 -2 -19 -9 -33
-17 -33 -7 0 -13 -6 -12 -12 2 -66 -9 -80 -55 -71 -18 3 -25 10 -21 19 3 9 -2
14 -15 14 -13 0 -24 11 -33 33 -7 17 -24 50 -38 72 -23 36 -52 91 -55 105 -1
3 -16 24 -33 48 -41 56 -56 102 -51 158 2 33 0 43 -10 39 -7 -2 -16 3 -19 12
-7 18 -99 110 -137 138 -12 8 -47 28 -80 45 -72 37 -106 68 -106 98 0 12 -4
22 -10 22 -16 0 -12 36 5 50 33 27 -15 89 -69 90 -21 0 -27 -4 -22 -16 3 -8 2
-12 -3 -9 -9 5 -23 -24 -20 -41 4 -23 -2 -26 -16 -8 -14 18 -14 17 -15 -13 0
-18 -4 -33 -10 -33 -5 0 -10 5 -10 11 0 5 -5 7 -11 3 -17 -10 -29 16 -29 61 0
29 -5 44 -20 53 -12 7 -17 18 -13 28 4 12 1 15 -13 12 -11 -2 -18 -11 -18 -21
1 -13 -3 -16 -16 -12 -13 4 -21 -3 -30 -26 -10 -23 -18 -29 -33 -25 -10 2 -28
-1 -39 -7 -16 -9 -22 -9 -25 0 -2 7 -20 15 -39 19 -32 6 -58 24 -34 24 6 0 8
5 5 10 -3 6 -1 10 4 10 6 0 11 5 11 10 0 6 -7 10 -15 10 -8 0 -15 5 -15 10 0
6 7 10 16 10 14 0 14 3 4 15 -7 8 -9 15 -6 15 4 0 2 9 -4 20 -9 16 -8 22 5 26
8 3 13 10 10 15 -3 4 -12 6 -20 2 -17 -6 -19 12 -4 42 9 19 9 18 5 -2 -5 -28
16 -30 41 -4 10 10 49 26 87 36 57 14 70 14 77 3 5 -7 7 -19 4 -26 -7 -18 102
-119 135 -126 40 -9 97 0 126 19 22 14 25 22 20 48 -3 19 -20 45 -40 62 -19
17 -39 40 -45 53 -11 20 -9 23 15 32 14 6 31 10 38 8 21 -3 66 25 66 43 0 10
12 30 28 46 15 15 34 41 42 56 20 39 41 48 100 44 28 -2 50 0 50 4 0 19 27 7
38 -16z m-5535 -27 c-9 -15 -43 -8 -43 9 0 15 -2 14 -15 -3 -8 -10 -15 -14
-15 -8 0 12 20 34 32 34 4 0 8 -7 8 -15 0 -24 20 -17 21 8 0 21 1 21 8 2 5
-11 7 -23 4 -27z m176 -7 c-15 -5 -22 6 -14 19 6 9 10 9 16 -1 5 -8 4 -15 -2
-18z m-1964 9 c3 -5 1 -10 -4 -10 -6 0 -11 5 -11 10 0 6 2 10 4 10 3 0 8 -4
11 -10z m55 0 c0 -5 -2 -10 -4 -10 -3 0 -8 5 -11 10 -3 6 -1 10 4 10 6 0 11
-4 11 -10z m2045 -9 c-3 -6 -11 -11 -17 -11 -6 0 -6 6 2 15 14 17 26 13 15 -4z
m-1898 -16 c-4 -8 -11 -15 -17 -15 -7 0 -7 6 0 21 13 23 26 19 17 -6z m-213
-10 c-4 -8 -8 -15 -10 -15 -2 0 -4 7 -4 15 0 8 4 15 10 15 5 0 7 -7 4 -15z
m2086 1 c0 -3 -4 -8 -10 -11 -5 -3 -10 -1 -10 4 0 6 5 11 10 11 6 0 10 -2 10
-4z m-270 -27 c0 -5 -4 -8 -9 -4 -5 3 -12 1 -16 -5 -3 -5 -16 -10 -28 -10 -22
1 -22 1 -3 15 23 17 56 20 56 4z m-1790 -3 c0 -3 -4 -8 -10 -11 -5 -3 -10 -1
-10 4 0 6 5 11 10 11 6 0 10 -2 10 -4z m1705 -6 c3 -5 -1 -10 -9 -10 -9 0 -16
5 -16 10 0 6 4 10 9 10 6 0 13 -4 16 -10z m-1660 -10 c-3 -5 -12 -10 -18 -10
-7 0 -6 4 3 10 19 12 23 12 15 0z m2035 -5 c-14 -17 -30 -20 -30 -6 0 5 8 12
18 14 9 3 19 5 21 6 2 0 -2 -6 -9 -14z m-80 1 c0 -2 -7 -6 -15 -10 -8 -3 -15
-1 -15 4 0 6 7 10 15 10 8 0 15 -2 15 -4z m-68 -13 c-6 -2 -10 -9 -6 -14 3 -5
-2 -9 -10 -9 -9 0 -16 -4 -16 -10 0 -13 -70 -42 -86 -36 -8 3 -11 -1 -7 -9 3
-10 13 -13 28 -9 13 3 26 1 29 -5 4 -6 1 -11 -6 -11 -7 0 -26 -7 -43 -16 -19
-10 -31 -11 -33 -5 -2 6 -11 11 -20 12 -14 0 -12 3 6 16 22 16 30 43 12 43 -5
0 -10 -4 -10 -10 0 -5 -5 -10 -10 -10 -6 0 -5 8 2 19 8 14 16 17 24 10 8 -6
13 -3 17 11 4 15 10 18 24 13 10 -3 21 -10 24 -15 8 -12 39 2 39 17 0 8 8 16
18 18 24 6 40 7 24 0z m93 -33 c-3 -5 -11 -10 -16 -10 -6 0 -7 5 -4 10 3 6 11
10 16 10 6 0 7 -4 4 -10z m4803 -50 c33 -28 20 -40 -28 -28 -39 10 -40 11 -24
29 21 23 23 23 52 -1z m-4921 4 c-3 -3 -12 -4 -19 -1 -8 3 -5 6 6 6 11 1 17
-2 13 -5z m-286 -27 c-13 -13 -26 -3 -16 12 3 6 11 8 17 5 6 -4 6 -10 -1 -17z
m43 -18 c-3 -5 0 -9 7 -9 10 0 10 -3 1 -12 -15 -15 -21 -8 -26 32 -4 31 -3 33
10 16 7 -11 11 -23 8 -27z m53 -1 c-3 -8 -6 -5 -6 6 -1 11 2 17 5 13 3 -3 4
-12 1 -19z m-107 -18 c0 -5 -4 -10 -9 -10 -6 0 -13 5 -16 10 -3 6 1 10 9 10 9
0 16 -4 16 -10z m-944 -57 c-1 -1 -12 0 -24 4 -21 5 -21 6 -5 18 15 11 19 11
24 -3 4 -9 6 -18 5 -19z m-56 -4 c0 -6 -4 -7 -10 -4 -5 3 -10 11 -10 16 0 6 5
7 10 4 6 -3 10 -11 10 -16z m7130 12 c0 -6 -4 -13 -10 -16 -5 -3 -10 1 -10 9
0 9 5 16 10 16 6 0 10 -4 10 -9z m-6680 -21 c0 -5 -5 -10 -11 -10 -5 0 -7 5
-4 10 3 6 8 10 11 10 2 0 4 -4 4 -10z m213 -22 c-30 -14 -31 -38 -1 -30 14 3
19 2 14 -6 -4 -7 -18 -12 -31 -12 -22 0 -23 2 -14 30 8 21 17 30 32 29 22 0
22 0 0 -11z m-183 -18 c0 -14 -15 -19 -38 -13 -32 8 -27 20 8 21 17 0 30 -3
30 -8z m350 -10 c-12 -8 -13 -12 -2 -19 10 -6 7 -10 -11 -13 -18 -4 -24 -1
-20 9 3 7 0 13 -6 13 -6 0 -11 5 -11 10 0 6 15 10 33 10 24 0 28 -3 17 -10z
m-175 -68 c31 0 45 4 50 16 3 8 1 19 -6 22 -8 6 -8 9 0 14 6 4 15 5 20 1 5 -3
12 -1 16 4 7 12 35 3 35 -11 0 -5 -4 -7 -9 -3 -5 3 -12 1 -16 -5 -4 -6 -11 -7
-17 -4 -7 5 -9 0 -6 -13 5 -18 -2 -23 -51 -38 -31 -9 -63 -19 -71 -22 -12 -5
-13 -4 -2 9 9 11 10 23 2 42 -5 14 -6 34 -2 43 5 13 8 8 10 -18 3 -35 4 -36
47 -37z m-548 38 c3 -10 2 -11 -4 -4 -4 6 -15 14 -23 17 -11 5 -9 6 4 4 11 -1
21 -9 23 -17z m813 0 c0 -5 -4 -10 -10 -10 -5 0 -10 5 -10 10 0 6 5 10 10 10
6 0 10 -4 10 -10z m-240 -4 c0 -3 -4 -8 -10 -11 -5 -3 -10 -1 -10 4 0 6 5 11
10 11 6 0 10 -2 10 -4z m-597 -43 c-7 -18 -19 -17 -27 3 -3 8 -2 12 4 9 6 -3
10 2 10 12 0 14 2 15 9 4 5 -8 7 -20 4 -28z m263 0 c-7 -7 -26 7 -26 19 0 6 6
6 15 -2 9 -7 13 -15 11 -17z m84 17 c0 -5 -2 -10 -4 -10 -3 0 -8 5 -11 10 -3
6 -1 10 4 10 6 0 11 -4 11 -10z m63 -20 c-15 -10 -36 -28 -46 -40 -10 -12 -21
-20 -24 -17 -7 8 30 56 43 57 6 0 17 7 24 15 7 8 17 12 22 9 5 -4 -3 -14 -19
-24z m84 -2 c-3 -8 -6 -5 -6 6 -1 11 2 17 5 13 3 -3 4 -12 1 -19z m1703 2
c-33 -26 -48 -26 -25 0 10 11 25 20 34 20 12 0 9 -6 -9 -20z m-2250 -10 c-6
-11 -9 -24 -6 -29 3 -5 -3 -16 -14 -26 -12 -10 -20 -13 -20 -7 0 7 5 12 10 12
6 0 10 10 10 23 0 13 5 28 12 35 18 18 20 15 8 -8z m130 11 c0 -5 -11 -11 -25
-13 -26 -5 -35 6 -12 15 20 9 37 8 37 -2z m-170 -23 c0 -16 -3 -19 -11 -11 -6
6 -8 16 -5 22 11 17 16 13 16 -11z m315 12 c3 -5 1 -10 -4 -10 -6 0 -11 5 -11
10 0 6 2 10 4 10 3 0 8 -4 11 -10z m115 -10 c0 -14 -7 -20 -24 -20 -13 0 -26
-6 -29 -12 -2 -8 -8 -9 -13 -4 -5 5 -4 11 3 13 7 3 23 13 35 23 29 24 28 24
28 0z m-336 -15 c-10 -8 -26 -14 -34 -14 -9 0 -4 6 10 14 33 19 49 19 24 0z
m243 -7 c-3 -8 -6 -5 -6 6 -1 11 2 17 5 13 3 -3 4 -12 1 -19z m243 2 c-8 -5
-17 -7 -19 -4 -3 3 1 9 9 14 8 5 17 7 19 4 3 -3 -1 -9 -9 -14z m-395 0 c-3 -5
-10 -10 -16 -10 -5 0 -9 5 -9 10 0 6 7 10 16 10 8 0 12 -4 9 -10z m-35 -4 c0
-2 -9 -6 -20 -9 -11 -3 -20 -1 -20 4 0 5 9 9 20 9 11 0 20 -2 20 -4z m396 -5
c-7 -11 -56 -21 -56 -10 0 4 8 10 18 12 30 8 43 7 38 -2z m-568 -25 c3 -12 -1
-17 -10 -14 -7 3 -15 13 -16 22 -3 12 1 17 10 14 7 -3 15 -13 16 -22z m327 -4
c-2 -3 -17 -1 -32 3 l-28 8 25 7 c22 6 46 -7 35 -18z m115 24 c0 -3 -4 -8 -10
-11 -5 -3 -10 -1 -10 4 0 6 5 11 10 11 6 0 10 -2 10 -4z m5714 -12 c9 -22 8
-24 -9 -18 -8 4 -15 12 -15 20 0 19 16 18 24 -2z m-5904 -4 c-13 -8 -12 -11 5
-24 17 -12 18 -17 6 -28 -10 -9 -12 -9 -7 0 4 7 1 12 -8 12 -9 0 -17 -8 -17
-17 -1 -15 -2 -15 -6 -2 -6 22 14 69 29 69 9 0 8 -3 -2 -10z m-40 -21 c0 -6
-4 -7 -10 -4 -5 3 -10 11 -10 16 0 6 5 7 10 4 6 -3 10 -11 10 -16z m2747 9
c-21 -7 -32 -7 -40 1 -8 8 0 11 29 10 39 -1 39 -1 11 -11z m-2579 -29 c-7 -5
-24 -8 -38 -7 -23 1 -24 1 -2 5 12 2 22 11 22 20 0 13 3 13 15 3 13 -11 13
-15 3 -21z m-200 2 c12 -10 22 -21 22 -25 0 -9 -49 27 -50 37 0 11 5 9 28 -12z
m-48 -1 c0 -5 -4 -10 -10 -10 -5 0 -10 5 -10 10 0 6 5 10 10 10 6 0 10 -4 10
-10z m-30 -10 c0 -5 -7 -10 -16 -10 -8 0 -12 5 -9 10 3 6 10 10 16 10 5 0 9
-4 9 -10z m50 -30 c-19 -12 -30 -12 -30 -1 0 10 31 20 40 14 2 -2 -2 -8 -10
-13z m-560 -5 c-7 -8 -17 -15 -22 -15 -6 0 -5 7 2 15 7 8 17 15 22 15 6 0 5
-7 -2 -15z m600 -6 c0 -6 -4 -7 -10 -4 -5 3 -10 11 -10 16 0 6 5 7 10 4 6 -3
10 -11 10 -16z m2372 -43 c6 -33 -8 -56 -35 -56 -22 0 -22 0 2 19 18 14 23 25
19 44 -3 15 -2 24 2 22 4 -3 10 -16 12 -29z m-564 -41 c-16 -35 -29 -31 -17 5
6 16 15 28 20 25 4 -3 3 -17 -3 -30z m5092 -81 c0 -8 -4 -12 -10 -9 -5 3 -10
10 -10 16 0 5 5 9 10 9 6 0 10 -7 10 -16z m-2560 -50 c0 -3 -7 -1 -15 6 -8 7
-15 17 -15 22 0 5 7 3 15 -6 8 -8 15 -18 15 -22z m-2575 -14 c3 -5 1 -10 -4
-10 -6 0 -11 5 -11 10 0 6 2 10 4 10 3 0 8 -4 11 -10z m2550 -10 c3 -5 -1 -10
-10 -10 -9 0 -13 5 -10 10 3 6 8 10 10 10 2 0 7 -4 10 -10z m-1945 -10 c0 -5
-2 -10 -4 -10 -3 0 -8 5 -11 10 -3 6 -1 10 4 10 6 0 11 -4 11 -10z m-640 -14
c0 -2 -7 -7 -16 -10 -8 -3 -12 -2 -9 4 6 10 25 14 25 6z m-2262 -78 c-7 -13
-23 -32 -35 -43 -13 -11 -23 -24 -23 -29 0 -4 -7 -14 -15 -22 -8 -9 -15 -11
-15 -5 0 5 5 13 11 17 6 3 8 15 6 26 -4 15 1 22 24 30 16 5 27 14 24 18 -3 5
3 13 12 19 25 14 25 14 11 -11z m3017 12 c3 -5 1 -10 -4 -10 -6 0 -11 5 -11
10 0 6 2 10 4 10 3 0 8 -4 11 -10z m-88 -22 c-3 -8 -6 -5 -6 6 -1 11 2 17 5
13 3 -3 4 -12 1 -19z m223 2 c0 -5 -2 -10 -4 -10 -3 0 -8 5 -11 10 -3 6 -1 10
4 10 6 0 11 -4 11 -10z m-80 -26 c0 -8 -4 -12 -10 -9 -5 3 -10 10 -10 16 0 5
5 9 10 9 6 0 10 -7 10 -16z m210 6 c0 -5 -4 -10 -10 -10 -5 0 -10 5 -10 10 0
6 5 10 10 10 6 0 10 -4 10 -10z m-290 -10 c0 -5 -4 -10 -10 -10 -5 0 -10 5
-10 10 0 6 5 10 10 10 6 0 10 -4 10 -10z m220 -10 c0 -5 -4 -10 -10 -10 -5 0
-10 5 -10 10 0 6 5 10 10 10 6 0 10 -4 10 -10z m-300 -10 c0 -5 -5 -10 -11
-10 -5 0 -7 5 -4 10 3 6 8 10 11 10 2 0 4 -4 4 -10z m140 -26 c0 -8 -4 -12
-10 -9 -5 3 -10 10 -10 16 0 5 5 9 10 9 6 0 10 -7 10 -16z m80 6 c0 -5 -4 -10
-10 -10 -5 0 -10 5 -10 10 0 6 5 10 10 10 6 0 10 -4 10 -10z m-3920 -20 c0 -5
-4 -10 -10 -10 -5 0 -10 5 -10 10 0 6 5 10 10 10 6 0 10 -4 10 -10z m3750 -5
c0 -8 -4 -15 -10 -15 -5 0 -10 7 -10 15 0 8 5 15 10 15 6 0 10 -7 10 -15z
m150 -26 c0 -5 -4 -9 -10 -9 -5 0 -10 7 -10 16 0 8 5 12 10 9 6 -3 10 -10 10
-16z m80 11 c0 -5 -5 -10 -11 -10 -5 0 -7 5 -4 10 3 6 8 10 11 10 2 0 4 -4 4
-10z m-170 -31 c0 -5 -4 -9 -10 -9 -5 0 -10 7 -10 16 0 8 5 12 10 9 6 -3 10
-10 10 -16z m-93 -21 c-3 -8 -6 -5 -6 6 -1 11 2 17 5 13 3 -3 4 -12 1 -19z
m243 2 c0 -5 -4 -10 -10 -10 -5 0 -10 5 -10 10 0 6 5 10 10 10 6 0 10 -4 10
-10z m210 -10 c0 -5 -2 -10 -4 -10 -3 0 -8 5 -11 10 -3 6 -1 10 4 10 6 0 11
-4 11 -10z m-300 -16 c0 -8 -4 -12 -10 -9 -5 3 -10 10 -10 16 0 5 5 9 10 9 6
0 10 -7 10 -16z m-83 -20 c-9 -9 -28 6 -21 18 4 6 10 6 17 -1 6 -6 8 -13 4
-17z m313 16 c0 -5 -4 -10 -10 -10 -5 0 -10 5 -10 10 0 6 5 10 10 10 6 0 10
-4 10 -10z m-90 -16 c0 -8 -5 -12 -10 -9 -6 4 -8 11 -5 16 9 14 15 11 15 -7z
m-80 -20 c0 -8 -4 -14 -9 -14 -11 0 -22 26 -14 34 9 9 23 -3 23 -20z m-3655
-13 c-3 -6 -11 -11 -16 -11 -5 0 -4 6 3 14 14 16 24 13 13 -3z m3565 4 c0 -8
-4 -15 -10 -15 -5 0 -10 7 -10 15 0 8 5 15 10 15 6 0 10 -7 10 -15z m230 -26
c0 -5 -4 -9 -10 -9 -5 0 -10 7 -10 16 0 8 5 12 10 9 6 -3 10 -10 10 -16z
m-320 -5 c0 -8 -4 -12 -10 -9 -5 3 -10 10 -10 16 0 5 5 9 10 9 6 0 10 -7 10
-16z m279 -14 c36 0 81 -47 81 -84 0 -85 -107 -126 -159 -60 -10 13 -24 24
-31 24 -8 0 -9 10 -4 32 8 38 32 78 46 78 6 0 8 6 5 14 -8 21 3 27 20 11 8 -8
27 -15 42 -15z m-136 -13 c-3 -5 -9 -3 -14 4 -4 7 -5 17 -2 22 3 5 9 3 14 -4
4 -7 5 -17 2 -22z m-85 -6 c3 -8 -1 -12 -9 -9 -7 2 -15 10 -17 17 -3 8 1 12 9
9 7 -2 15 -10 17 -17z m62 -36 c0 -8 -4 -15 -9 -15 -13 0 -22 16 -14 24 11 11
23 6 23 -9z m-90 -25 c0 -5 -4 -10 -10 -10 -5 0 -10 5 -10 10 0 6 5 10 10 10
6 0 10 -4 10 -10z m4623 -10 c-7 -28 -22 -35 -30 -15 -3 10 0 21 8 26 22 14
28 11 22 -11z m-4571 -25 c0 -5 -5 -11 -11 -13 -6 -2 -11 4 -11 13 0 9 5 15
11 13 6 -2 11 -8 11 -13z m58 -40 c0 -8 -4 -15 -10 -15 -5 0 -10 7 -10 15 0 8
5 15 10 15 6 0 10 -7 10 -15z m320 -15 c0 -5 -2 -10 -4 -10 -3 0 -8 5 -11 10
-3 6 -1 10 4 10 6 0 11 -4 11 -10z m-413 -22 c-3 -8 -6 -5 -6 6 -1 11 2 17 5
13 3 -3 4 -12 1 -19z m324 9 c-1 -12 -15 -9 -19 4 -3 6 1 10 8 8 6 -3 11 -8
11 -12z m-171 -12 c0 -8 -4 -15 -10 -15 -5 0 -10 7 -10 15 0 8 5 15 10 15 6 0
10 -7 10 -15z m-87 -30 c-3 -8 -9 -15 -14 -15 -10 0 -12 24 -3 33 11 11 24 -3
17 -18z m317 -1 c0 -8 -4 -12 -10 -9 -5 3 -10 10 -10 16 0 5 5 9 10 9 6 0 10
-7 10 -16z m-86 -9 c3 -9 0 -15 -9 -15 -8 0 -15 7 -15 15 0 8 4 15 9 15 5 0
11 -7 15 -15z m-188 -32 c-11 -11 -19 6 -11 24 8 17 8 17 12 0 3 -10 2 -21 -1
-24z m104 27 c0 -5 -7 -10 -15 -10 -8 0 -15 5 -15 10 0 6 7 10 15 10 8 0 15
-4 15 -10z m230 -20 c0 -5 -4 -10 -10 -10 -5 0 -10 5 -10 10 0 6 5 10 10 10 6
0 10 -4 10 -10z m-3810 -12 c0 -5 -13 -8 -30 -8 -16 0 -30 3 -30 8 0 4 14 7
30 7 17 0 30 -3 30 -7z m3720 -14 c0 -8 -4 -14 -10 -14 -5 0 -10 9 -10 21 0
11 5 17 10 14 6 -3 10 -13 10 -21z m-3827 9 c-7 -2 -19 -2 -25 0 -7 3 -2 5 12
5 14 0 19 -2 13 -5z m3507 -3 c0 -5 -4 -10 -10 -10 -5 0 -10 5 -10 10 0 6 5
10 10 10 6 0 10 -4 10 -10z m238 -9 c3 -8 -1 -12 -9 -9 -7 2 -15 10 -17 17 -3
8 1 12 9 9 7 -2 15 -10 17 -17z m-95 -5 c6 -16 -2 -28 -14 -20 -12 7 -11 34 0
34 5 0 11 -6 14 -14z m-3655 -16 c24 -23 33 -25 26 -7 -3 9 7 13 34 13 36 0
38 -1 28 -20 -31 -56 -41 -66 -71 -65 -25 0 -27 2 -10 9 18 7 19 8 3 15 -10 4
-26 4 -35 -1 -10 -4 -22 -6 -26 -5 -5 1 -6 -3 -2 -9 4 -6 -8 -10 -30 -10 -22
0 -34 4 -30 10 3 6 1 10 -4 10 -6 0 -11 -8 -12 -17 0 -17 -1 -17 -7 -1 -5 13
-11 15 -22 8 -13 -9 -13 -11 0 -20 12 -8 8 -10 -15 -9 -16 0 -65 -2 -108 -6
-67 -5 -81 -4 -91 11 -11 14 -16 15 -36 4 -17 -9 -19 -14 -10 -20 8 -5 -1 -8
-24 -8 -20 0 -36 4 -36 10 0 5 4 7 9 4 14 -9 41 4 41 20 0 8 -4 14 -10 14 -5
0 -10 4 -10 10 0 5 10 9 23 9 35 -1 131 13 142 21 9 7 103 22 135 22 8 0 26
-3 39 -8 17 -5 22 -4 17 4 -5 9 27 25 65 31 3 1 15 -8 27 -19z m3569 -5 c8
-22 -6 -33 -17 -15 -13 20 -12 30 0 30 6 0 13 -7 17 -15z m323 -16 c0 -5 -4
-9 -10 -9 -5 0 -10 7 -10 16 0 8 5 12 10 9 6 -3 10 -10 10 -16z m-172 -13 c3
-12 -1 -17 -10 -14 -7 3 -15 13 -16 22 -3 12 1 17 10 14 7 -3 15 -13 16 -22z
m82 8 c0 -8 -4 -12 -10 -9 -5 3 -10 10 -10 16 0 5 5 9 10 9 6 0 10 -7 10 -16z
m137 -16 c-3 -8 -6 -5 -6 6 -1 11 2 17 5 13 3 -3 4 -12 1 -19z m-307 -14 c0
-8 -4 -14 -9 -14 -11 0 -22 26 -14 34 9 9 23 -3 23 -20z m230 -15 c0 -11 -4
-17 -10 -14 -5 3 -10 13 -10 21 0 8 5 14 10 14 6 0 10 -9 10 -21z m-320 -4 c0
-8 -4 -15 -10 -15 -5 0 -10 7 -10 15 0 8 5 15 10 15 6 0 10 -7 10 -15z m238
-3 c2 -7 -3 -12 -12 -12 -9 0 -16 7 -16 16 0 17 22 14 28 -4z m-4238 4 c0 -3
-4 -8 -10 -11 -5 -3 -10 -1 -10 4 0 6 5 11 10 11 6 0 10 -2 10 -4z m-49 -29
c-8 -8 -14 -7 -23 2 -10 11 -10 13 0 7 6 -4 12 -2 12 4 0 6 5 8 11 4 8 -4 8
-9 0 -17z m4197 5 c6 -18 -15 -14 -22 4 -4 10 -1 14 6 12 6 -2 14 -10 16 -16z
m-4068 -2 c0 -5 -4 -10 -10 -10 -5 0 -10 5 -10 10 0 6 5 10 10 10 6 0 10 -4
10 -10z m3980 -15 c0 -8 -4 -15 -9 -15 -13 0 -22 16 -14 24 11 11 23 6 23 -9z
m230 -5 c0 -11 -4 -20 -10 -20 -5 0 -10 9 -10 20 0 11 5 20 10 20 6 0 10 -9
10 -20z m-4013 4 c-3 -3 -12 -4 -19 -1 -8 3 -5 6 6 6 11 1 17 -2 13 -5z m-162
-14 c3 -5 1 -10 -4 -10 -6 0 -11 5 -11 10 0 6 2 10 4 10 3 0 8 -4 11 -10z m75
0 c0 -5 -2 -10 -4 -10 -3 0 -8 5 -11 10 -3 6 -1 10 4 10 6 0 11 -4 11 -10z
m4010 -5 c0 -8 -4 -15 -10 -15 -5 0 -10 7 -10 15 0 8 5 15 10 15 6 0 10 -7 10
-15z m-3899 -4 c-8 -5 -11 -15 -8 -23 3 -10 -1 -14 -14 -13 -23 2 -38 15 -17
15 9 0 18 7 22 15 3 8 11 15 18 15 10 0 9 -3 -1 -9z m149 -13 c0 -16 -3 -19
-11 -11 -6 6 -8 16 -5 22 11 17 16 13 16 -11z m3668 -7 c3 -8 -1 -12 -9 -9 -7
2 -15 10 -17 17 -3 8 1 12 9 9 7 -2 15 -10 17 -17z m-3642 -18 c-10 -10 -19 5
-10 18 6 11 8 11 12 0 2 -7 1 -15 -2 -18z m3874 12 c0 -8 -4 -15 -10 -15 -5 0
-10 7 -10 15 0 8 5 15 10 15 6 0 10 -7 10 -15z m-320 -21 c0 -8 -4 -12 -10 -9
-5 3 -10 13 -10 21 0 8 5 12 10 9 6 -3 10 -13 10 -21z m230 0 c0 -8 -4 -12
-10 -9 -5 3 -10 10 -10 16 0 5 5 9 10 9 6 0 10 -7 10 -16z m-3900 -4 c0 -5 -4
-10 -10 -10 -5 0 -10 5 -10 10 0 6 5 10 10 10 6 0 10 -4 10 -10z m3814 -6 c9
-22 8 -24 -9 -24 -8 0 -15 9 -15 20 0 24 15 27 24 4z m-3739 -4 c3 -5 1 -10
-4 -10 -6 0 -11 5 -11 10 0 6 2 10 4 10 3 0 8 -4 11 -10z m3650 -18 c0 -18
-20 -15 -23 4 -3 10 1 15 10 12 7 -3 13 -10 13 -16z m-3678 2 c-3 -3 -12 -4
-19 -1 -8 3 -5 6 6 6 11 1 17 -2 13 -5z m3913 -15 c0 -11 -4 -17 -10 -14 -5 3
-10 13 -10 21 0 8 5 14 10 14 6 0 10 -9 10 -21z m490 11 c0 -5 -4 -10 -10 -10
-5 0 -10 5 -10 10 0 6 5 10 10 10 6 0 10 -4 10 -10z m-390 -10 c8 -5 11 -12 7
-16 -4 -4 -15 0 -24 9 -18 18 -8 23 17 7z m-182 -17 c-4 -22 -22 -20 -26 1 -2
10 3 16 13 16 10 0 15 -7 13 -17z m-88 -25 c0 -5 -7 -8 -15 -8 -15 0 -20 21
-8 33 7 7 23 -11 23 -25z m-3816 13 c7 -10 -45 -22 -59 -13 -5 3 1 9 15 13 36
10 38 10 44 0z m3726 -27 c0 -8 -4 -14 -10 -14 -5 0 -10 9 -10 21 0 11 5 17
10 14 6 -3 10 -13 10 -21z m230 -9 c0 -8 -4 -15 -10 -15 -5 0 -10 7 -10 15 0
8 5 15 10 15 6 0 10 -7 10 -15z m-90 -10 c0 -8 -4 -15 -10 -15 -5 0 -10 7 -10
15 0 8 5 15 10 15 6 0 10 -7 10 -15z m167 -17 c-3 -7 -5 -2 -5 12 0 14 2 19 5
13 2 -7 2 -19 0 -25z m-4457 18 c0 -3 -4 -8 -10 -11 -5 -3 -10 -1 -10 4 0 6 5
11 10 11 6 0 10 -2 10 -4z m273 -20 c3 -8 -4 -11 -24 -8 -16 2 -29 7 -29 11 0
11 49 9 53 -3z m44 -8 c-3 -8 -6 -5 -6 6 -1 11 2 17 5 13 3 -3 4 -12 1 -19z
m3883 7 c0 -8 -4 -15 -10 -15 -5 0 -10 7 -10 15 0 8 5 15 10 15 6 0 10 -7 10
-15z m479 -32 c-1 -33 -2 -35 -8 -13 -4 14 -6 31 -3 38 8 22 12 13 11 -25z
m-239 18 c0 -6 -4 -13 -10 -16 -5 -3 -10 1 -10 9 0 9 5 16 10 16 6 0 10 -4 10
-9z m-90 -17 c0 -8 -4 -12 -10 -9 -5 3 -10 10 -10 16 0 5 5 9 10 9 6 0 10 -7
10 -16z m-4226 -9 c-4 -8 -10 -12 -15 -9 -6 3 -8 -19 -5 -54 5 -66 -3 -75 -57
-65 -37 7 -40 28 -12 81 13 26 24 43 24 37 0 -5 -6 -21 -14 -35 -22 -39 -19
-60 10 -60 27 0 31 10 15 41 -7 11 -7 19 -1 19 5 0 12 -6 14 -12 3 -7 6 1 6
19 1 19 8 36 19 42 22 13 22 13 16 -4z m4136 0 c0 -8 -4 -15 -10 -15 -5 0 -10
7 -10 15 0 8 5 15 10 15 6 0 10 -7 10 -15z m457 -67 c-2 -18 -4 -6 -4 27 0 33
2 48 4 33 2 -15 2 -42 0 -60z m-4737 68 c0 -3 -4 -8 -10 -11 -5 -3 -10 -1 -10
4 0 6 5 11 10 11 6 0 10 -2 10 -4z m320 -16 c0 -5 -2 -10 -4 -10 -3 0 -8 5
-11 10 -3 6 -1 10 4 10 6 0 11 -4 11 -10z m80 6 c0 -3 -4 -8 -10 -11 -5 -3
-10 -1 -10 4 0 6 5 11 10 11 6 0 10 -2 10 -4z m22 -18 c-7 -7 -12 -8 -12 -2 0
14 12 26 19 19 2 -3 -1 -11 -7 -17z m3771 -4 c-4 -12 -8 -13 -14 -3 -9 15 -2
32 11 24 5 -3 6 -13 3 -21z m271 1 c3 -8 -3 -17 -15 -20 -15 -5 -18 -12 -13
-31 5 -20 2 -26 -15 -31 -12 -3 -21 -13 -21 -25 0 -15 5 -19 20 -15 11 3 18 1
14 -4 -3 -5 0 -9 5 -9 6 0 11 -4 11 -10 0 -5 -11 -10 -25 -10 -30 0 -75 41
-75 67 0 10 -7 31 -15 47 -15 29 -11 52 4 27 7 -10 13 -9 30 5 38 33 84 37 95
9z m-4090 -16 c-3 -5 -10 -7 -15 -3 -5 3 -7 10 -3 15 3 5 10 7 15 3 5 -3 7
-10 3 -15z m96 11 c0 -5 -8 -10 -17 -10 -15 0 -16 2 -3 10 19 12 20 12 20 0z
m4230 -40 c0 -22 -3 -40 -7 -40 -5 0 -8 18 -8 40 0 22 3 40 8 40 4 0 7 -18 7
-40z m-450 8 c0 -16 -3 -19 -11 -11 -6 6 -8 16 -5 22 11 17 16 13 16 -11z
m-3798 -16 c-19 -6 -44 6 -37 18 4 7 14 6 28 -2 14 -7 17 -13 9 -16z m4015
-14 c-3 -8 -6 -5 -6 6 -1 11 2 17 5 13 3 -3 4 -12 1 -19z m-153 -27 c-9 -10
-26 18 -18 30 5 9 9 8 14 -7 4 -10 6 -21 4 -23z m-3934 19 c0 -5 -4 -10 -10
-10 -5 0 -10 5 -10 10 0 6 5 10 10 10 6 0 10 -4 10 -10z m-379 -27 c13 -16 12
-17 -3 -5 -9 8 -23 10 -29 6 -8 -4 -9 -3 -5 4 10 17 21 15 37 -5z m436 -8 c8
-9 12 -22 9 -31 -5 -14 -8 -14 -22 0 -8 9 -19 16 -24 16 -5 0 -7 7 -4 15 8 19
21 19 41 0z m3788 5 c3 -5 1 -10 -4 -10 -6 0 -11 5 -11 10 0 6 2 10 4 10 3 0
8 -4 11 -10z m275 6 c0 -2 -9 -6 -20 -9 -11 -3 -18 -1 -14 4 5 9 34 13 34 5z
m-4135 -16 c-3 -5 -12 -10 -18 -10 -7 0 -6 4 3 10 19 12 23 12 15 0z m-296
-35 c3 -17 2 -17 -13 -3 -19 20 -21 31 -3 26 6 -3 14 -13 16 -23z m4221 -9 c0
-5 -7 -3 -15 4 -8 7 -12 17 -9 22 7 10 24 -9 24 -26z m-3970 -27 c0 -11 -4
-17 -10 -14 -5 3 -10 13 -10 21 0 8 5 14 10 14 6 0 10 -9 10 -21z m116 5 c-3
-9 -6 -18 -6 -20 0 -2 -4 -4 -9 -4 -5 0 -7 9 -4 20 3 11 10 20 15 20 6 0 7 -7
4 -16z m3906 1 c0 -5 -5 -11 -11 -13 -6 -2 -11 4 -11 13 0 9 5 15 11 13 6 -2
11 -8 11 -13z m-4282 -29 c0 -5 -7 -3 -15 4 -8 7 -12 17 -9 22 7 10 24 -9 24
-26z m4200 3 c0 -5 -4 -9 -10 -9 -5 0 -10 7 -10 16 0 8 5 12 10 9 6 -3 10 -10
10 -16z m-3900 1 c0 -5 -2 -10 -4 -10 -3 0 -8 5 -11 10 -3 6 -1 10 4 10 6 0
11 -4 11 -10z m-210 -4 c0 -2 -7 -6 -15 -10 -8 -3 -15 -1 -15 4 0 6 7 10 15
10 8 0 15 -2 15 -4z m2275 -6 c3 -5 1 -10 -4 -10 -6 0 -11 5 -11 10 0 6 2 10
4 10 3 0 8 -4 11 -10z m1980 -20 c-6 -9 -9 -9 -16 1 -10 17 0 34 13 21 6 -6 7
-16 3 -22z m-4370 -19 c-12 -12 -18 -13 -39 -1 -14 7 -23 17 -20 22 3 4 12 1
20 -7 22 -22 37 -19 24 5 -10 19 -10 20 9 8 18 -11 19 -14 6 -27z m280 9 c-4
-12 -9 -19 -12 -17 -3 3 -2 15 2 27 4 12 9 19 12 17 3 -3 2 -15 -2 -27z m3995
-2 c0 -16 -3 -19 -11 -11 -6 6 -8 16 -5 22 11 17 16 13 16 -11z m-4180 2 c0
-5 -5 -10 -11 -10 -5 0 -7 5 -4 10 3 6 8 10 11 10 2 0 4 -4 4 -10z m241 -7
c13 -16 12 -17 -3 -4 -10 7 -18 15 -18 17 0 8 8 3 21 -13z m4009 -39 c0 -16
-16 -19 -25 -4 -8 13 4 32 16 25 5 -4 9 -13 9 -21z m-4380 6 c0 -5 -7 -7 -15
-4 -8 4 -15 8 -15 10 0 2 7 4 15 4 8 0 15 -4 15 -10z m70 -16 c0 -7 -10 -9
-25 -6 -14 2 -25 7 -25 11 0 4 11 7 25 7 14 0 25 -5 25 -12z m205 -4 c3 -5 -1
-10 -9 -10 -8 0 -18 5 -21 10 -3 6 1 10 9 10 8 0 18 -4 21 -10z m110 -10 c3
-5 1 -10 -4 -10 -6 0 -11 5 -11 10 0 6 2 10 4 10 3 0 8 -4 11 -10z m3905 0 c0
-5 -2 -10 -4 -10 -3 0 -8 5 -11 10 -3 6 -1 10 4 10 6 0 11 -4 11 -10z m150
-11 c0 -5 -4 -9 -10 -9 -5 0 -10 7 -10 16 0 8 5 12 10 9 6 -3 10 -10 10 -16z
m-4200 -9 c0 -5 -5 -10 -11 -10 -5 0 -7 5 -4 10 3 6 8 10 11 10 2 0 4 -4 4
-10z m80 -14 c0 -3 -4 -8 -10 -11 -5 -3 -10 -1 -10 4 0 6 5 11 10 11 6 0 10
-2 10 -4z m48 -14 c6 -18 -15 -14 -22 4 -4 10 -1 14 6 12 6 -2 14 -10 16 -16z
m3982 8 c0 -5 -4 -10 -10 -10 -5 0 -10 5 -10 10 0 6 5 10 10 10 6 0 10 -4 10
-10z m-4286 -15 c-4 -11 -15 -13 -37 -9 -42 7 -51 17 -10 11 18 -3 35 -1 39 4
9 14 14 10 8 -6z m223 -21 c1 -18 -2 -23 -9 -16 -6 6 -8 18 -5 26 9 22 12 20
14 -10z m53 0 c0 -8 5 -12 10 -9 6 3 10 1 10 -5 0 -18 -34 -7 -38 13 -2 9 1
17 7 17 6 0 11 -7 11 -16z m4070 -5 c0 -5 -4 -9 -10 -9 -5 0 -10 7 -10 16 0 8
5 12 10 9 6 -3 10 -10 10 -16z m-4410 -31 c0 -32 -15 -19 -17 15 -2 23 0 28 7
17 5 -8 10 -23 10 -32z m56 -5 c-5 -12 -10 -13 -17 -6 -8 8 -7 16 2 26 16 17
24 5 15 -20z m4414 7 c0 -5 -7 -10 -16 -10 -8 0 -12 5 -9 10 3 6 10 10 16 10
5 0 9 -4 9 -10z m-4230 -14 c0 -3 -4 -8 -10 -11 -5 -3 -10 -1 -10 4 0 6 5 11
10 11 6 0 10 -2 10 -4z m4135 -16 c3 -5 1 -10 -4 -10 -6 0 -11 5 -11 10 0 6 2
10 4 10 3 0 8 -4 11 -10z m-4341 -37 c-4 -16 -12 -31 -18 -35 -7 -5 -4 -12 9
-22 12 -10 15 -15 7 -16 -16 0 -36 19 -45 44 -6 16 -5 17 7 7 16 -13 32 1 21
19 -7 12 2 30 16 30 5 0 6 -12 3 -27z m249 -3 c-5 -19 -23 -29 -23 -12 0 7 20
32 26 32 1 0 0 -9 -3 -20z m4210 13 c-7 -2 -21 -2 -30 0 -10 3 -4 5 12 5 17 0
24 -2 18 -5z m-53 -25 c0 -18 -2 -20 -9 -8 -6 8 -7 18 -5 22 9 14 14 9 14 -14z
m-4300 -29 c0 -5 -4 -9 -8 -9 -5 0 -9 7 -9 15 0 8 4 12 9 9 4 -3 8 -9 8 -15z
m4270 -24 c0 -8 -4 -15 -10 -15 -5 0 -10 7 -10 15 0 8 5 15 10 15 6 0 10 -7
10 -15z m1941 -55 c-4 -64 -5 -67 -26 -50 -9 7 -15 29 -15 55 0 46 6 57 30 53
12 -3 14 -15 11 -58z m-51 -5 c0 -34 -4 -55 -11 -55 -17 0 -38 32 -39 58 0 12
-5 22 -11 22 -8 0 -8 5 1 15 7 8 23 15 36 15 22 0 24 -4 24 -55z m111 34 c-2
-8 -6 -31 -9 -51 -6 -54 -29 -49 -34 7 -2 25 1 50 7 56 14 14 41 5 36 -12z
m-6221 -9 c0 -5 -2 -10 -4 -10 -3 0 -8 5 -11 10 -3 6 -1 10 4 10 6 0 11 -4 11
-10z m-120 -21 c0 -5 -7 -9 -15 -9 -9 0 -12 6 -9 15 6 15 24 11 24 -6z m5740
17 c0 -3 -4 -8 -10 -11 -5 -3 -10 -1 -10 4 0 6 5 11 10 11 6 0 10 -2 10 -4z
m-5770 -57 c0 -6 -4 -7 -10 -4 -5 3 -10 11 -10 16 0 6 5 7 10 4 6 -3 10 -11
10 -16z m5480 -14 c-7 -8 -18 -15 -24 -15 -6 0 -2 7 8 15 25 19 32 19 16 0z
m397 9 c-3 -3 -12 -4 -19 -1 -8 3 -5 6 6 6 11 1 17 -2 13 -5z m-5644 -24 c-4
-15 -63 -22 -63 -7 0 4 7 7 15 7 8 0 15 4 15 8 0 4 8 8 19 8 11 0 17 -6 14
-16z m-209 -5 c-25 -19 -40 -19 -24 0 7 8 20 15 28 15 13 0 12 -3 -4 -15z
m-77 -27 c-3 -8 -6 -5 -6 6 -1 11 2 17 5 13 3 -3 4 -12 1 -19z m54 -26 c-7 -2
-18 1 -23 6 -8 8 -4 9 13 5 13 -4 18 -8 10 -11z m6359 -4 c-17 -10 -36 -30
-42 -44 -11 -23 -10 -28 7 -40 38 -28 93 -5 81 34 -8 24 -32 30 -39 10 -2 -7
-8 -10 -11 -6 -4 3 1 15 12 26 22 22 44 12 56 -26 10 -32 0 -57 -30 -70 -36
-17 -52 -15 -78 11 -30 30 -25 79 10 98 14 7 20 15 14 19 -6 4 3 7 20 7 l30 0
-30 -19z m-6331 -97 c-1 -13 -2 -13 -6 2 -3 12 -10 16 -24 12 -11 -4 -19 -2
-19 5 0 6 5 8 10 5 6 -3 10 -1 10 6 0 8 4 8 15 -1 8 -7 14 -20 14 -29z m-112
-43 c-3 -8 -6 -5 -6 6 -1 11 2 17 5 13 3 -3 4 -12 1 -19z m5593 -8 c18 -12 2
-12 -25 0 -13 6 -15 9 -5 9 8 0 22 -4 30 -9z m-5343 -72 c-3 -8 -6 -5 -6 6 -1
11 2 17 5 13 3 -3 4 -12 1 -19z m7173 -1211 c0 -5 9 -20 20 -34 11 -14 20 -36
20 -49 0 -12 6 -24 13 -27 24 -8 2 -14 -40 -9 -28 3 -43 9 -43 18 0 8 5 14 10
14 6 0 10 -4 10 -10 0 -5 9 -10 20 -10 11 0 20 6 20 13 0 21 -34 64 -47 60 -9
-3 -13 8 -13 38 0 40 1 41 15 23 8 -10 15 -23 15 -27z m85 -97 c3 -6 -1 -7 -9
-4 -18 7 -21 14 -7 14 6 0 13 -4 16 -10z m60 -63 c15 -30 15 -30 -4 -13 -11
10 -24 15 -29 12 -5 -3 -9 8 -8 23 1 35 17 26 41 -22z m-115 -12 c-12 -15 -30
-12 -30 6 0 5 10 9 21 9 18 0 19 -2 9 -15z m10 -29 c0 -3 -4 -8 -10 -11 -5 -3
-10 -1 -10 4 0 6 5 11 10 11 6 0 10 -2 10 -4z m51 -10 c-8 -10 -9 -16 -1 -21
16 -10 12 -20 -25 -61 -37 -40 -50 -34 -14 7 12 14 18 31 15 43 -5 21 9 46 26
46 6 0 6 -6 -1 -14z m73 -31 c4 -10 -1 -15 -14 -15 -11 0 -20 7 -20 15 0 8 6
15 14 15 8 0 16 -7 20 -15z m36 11 c0 -3 -4 -8 -10 -11 -5 -3 -10 -1 -10 4 0
6 5 11 10 11 6 0 10 -2 10 -4z m10 -86 c0 -5 -4 -10 -10 -10 -5 0 -10 5 -10
10 0 6 5 10 10 10 6 0 10 -4 10 -10z m-193 -6 c-3 -3 -12 -4 -19 -1 -8 3 -5 6
6 6 11 1 17 -2 13 -5z m63 -30 c0 -14 -5 -24 -11 -22 -6 2 -10 7 -10 11 1 4 1
14 1 22 0 8 5 15 10 15 6 0 10 -12 10 -26z m190 10 c0 -8 -5 -12 -10 -9 -6 4
-8 11 -5 16 9 14 15 11 15 -7z m-140 2 c0 -3 -4 -8 -10 -11 -5 -3 -10 -1 -10
4 0 6 5 11 10 11 6 0 10 -2 10 -4z m100 -16 c0 -5 -2 -10 -4 -10 -3 0 -8 5
-11 10 -3 6 -1 10 4 10 6 0 11 -4 11 -10z m-210 -15 c0 -6 -9 -11 -20 -12 -11
-1 -20 4 -20 12 0 8 9 13 20 12 11 -1 20 -6 20 -12z m275 5 c3 -5 1 -10 -4
-10 -6 0 -11 5 -11 10 0 6 2 10 4 10 3 0 8 -4 11 -10z m-85 -14 c0 -17 -14
-29 -23 -20 -8 8 3 34 14 34 5 0 9 -6 9 -14z m-150 -36 c0 -21 -5 -30 -16 -30
-14 0 -51 28 -43 33 2 1 13 7 24 14 30 18 35 16 35 -17z m54 9 c-6 -11 -24 -2
-24 11 0 5 7 7 15 4 8 -4 12 -10 9 -15z m159 7 c26 -1 20 -19 -11 -34 -47 -23
-49 -24 -56 -7 -4 13 -1 15 13 10 23 -7 39 13 17 21 -9 3 -16 11 -16 16 0 6 7
7 18 3 9 -5 25 -8 35 -9z m-86 -31 c0 -8 -4 -12 -9 -9 -5 3 -6 10 -3 15 9 13
12 11 12 -6z m-65 -24 c4 -24 1 -27 -16 -23 -11 3 -15 7 -8 10 6 2 12 8 12 14
0 6 -8 7 -17 4 -15 -5 -15 -4 1 9 25 19 23 20 28 -14z m263 -2 c10 -14 1 -21
-19 -13 -9 3 -13 10 -10 15 7 12 21 11 29 -2z m-120 -8 c8 -14 -10 -22 -30
-15 -13 5 -14 8 -3 15 17 11 26 11 33 0z m-95 -11 c0 -5 -2 -10 -4 -10 -3 0
-8 5 -11 10 -3 6 -1 10 4 10 6 0 11 -4 11 -10z m-64 -25 c-3 -9 0 -15 9 -15 8
0 15 -4 15 -10 0 -12 -27 -13 -34 -1 -6 10 3 41 11 41 3 0 3 -7 -1 -15z m272
-3 c-10 -2 -18 -11 -18 -19 0 -9 -3 -14 -6 -10 -3 3 -3 15 1 26 4 14 11 18 23
13 16 -6 16 -7 0 -10z m-308 -2 c0 -5 -5 -10 -11 -10 -5 0 -7 5 -4 10 3 6 8
10 11 10 2 0 4 -4 4 -10z m80 0 c0 -5 -2 -10 -4 -10 -3 0 -8 5 -11 10 -3 6 -1
10 4 10 6 0 11 -4 11 -10z m-163 -32 c-3 -7 -5 -2 -5 12 0 14 2 19 5 13 2 -7
2 -19 0 -25z m65 -6 c15 -6 15 -9 -3 -31 -11 -13 -22 -21 -26 -17 -4 3 2 13
13 22 16 13 16 15 2 10 -18 -5 -32 6 -21 18 7 7 12 7 35 -2z m123 -2 c-3 -5
-16 -10 -28 -10 -18 0 -19 2 -7 10 20 13 43 13 35 0z m94 -28 c-11 -17 -14
-18 -27 -5 -8 7 -11 17 -7 21 4 4 10 1 12 -6 3 -6 9 -10 13 -7 5 3 6 13 3 23
-5 13 -3 14 6 6 10 -9 10 -16 0 -32z m121 23 c-7 -8 -10 -24 -7 -35 3 -11 1
-20 -4 -20 -5 0 -9 7 -9 15 0 8 -7 15 -15 15 -8 0 -15 5 -15 10 0 6 9 10 20
10 11 0 20 5 20 10 0 6 5 10 11 10 8 0 8 -5 -1 -15z m-209 -28 c-10 -9 -11 -8
-5 6 3 10 9 15 12 12 3 -3 0 -11 -7 -18z m109 -37 c0 -5 -4 -10 -10 -10 -5 0
-10 5 -10 10 0 6 5 10 10 10 6 0 10 -4 10 -10z"/>
<path d="M5000 7779 c-25 -10 -44 -22 -42 -28 2 -10 -62 -17 -112 -12 -10 0
-25 -4 -32 -10 -8 -6 -14 -8 -14 -5 0 4 -34 -11 -76 -33 -42 -23 -84 -41 -93
-41 -10 0 -33 -13 -51 -30 -18 -16 -42 -30 -53 -30 -10 0 -33 -10 -50 -22 -17
-13 -43 -28 -57 -35 -14 -6 -19 -12 -12 -12 9 -1 11 -12 7 -40 -5 -33 -1 -44
27 -78 18 -22 45 -61 60 -87 26 -44 69 -73 89 -60 5 3 21 -3 37 -13 41 -29
105 -54 127 -51 11 1 47 -4 80 -11 68 -15 126 -11 222 18 71 21 113 44 101 56
-4 4 -23 2 -42 -5 -46 -15 -126 -21 -126 -9 0 5 -7 9 -15 9 -9 0 -18 7 -21 15
-6 15 -35 20 -47 9 -9 -9 -97 -10 -97 -1 0 4 9 7 19 7 11 0 22 4 25 9 3 4 29
11 59 14 86 11 110 23 128 66 15 34 19 37 47 33 29 -4 30 -4 11 -23 -10 -10
-22 -19 -27 -19 -4 0 -13 -10 -21 -22 -13 -21 -13 -22 2 -10 8 7 41 16 71 19
31 3 53 10 50 14 -3 5 2 11 10 14 9 3 24 8 34 12 9 3 35 6 57 5 37 -1 39 0 21
13 -11 8 -25 15 -30 15 -6 1 1 7 15 15 36 20 29 63 -17 94 -19 13 -34 27 -34
32 0 4 -16 11 -35 15 -41 7 -70 34 -37 34 12 0 27 9 34 19 8 10 25 21 38 24
24 4 24 4 -2 6 -16 0 -28 6 -28 11 0 17 31 24 40 10 6 -10 14 -10 39 1 17 8
31 20 31 27 0 9 7 11 22 6 20 -6 21 -5 9 9 -9 11 -21 15 -37 11 -16 -4 -24 -2
-24 6 0 10 -3 10 -15 0 -22 -18 -145 8 -145 31 0 5 -9 9 -21 9 -11 0 -28 4
-37 8 -11 6 -34 2 -62 -9z m91 -240 c19 -7 43 -20 54 -29 11 -10 42 -29 69
-42 55 -28 51 -41 -9 -28 -100 23 -188 32 -239 27 -53 -5 -54 -5 -47 16 4 11
17 26 27 32 10 5 23 16 27 23 10 15 73 16 118 1z m-311 -279 c-8 -5 -22 -9
-30 -9 -10 0 -8 3 5 9 27 12 43 12 25 0z m160 -10 c0 -5 -2 -10 -4 -10 -3 0
-8 5 -11 10 -3 6 -1 10 4 10 6 0 11 -4 11 -10z m-237 -7 c-7 -2 -19 -2 -25 0
-7 3 -2 5 12 5 14 0 19 -2 13 -5z"/>
<path d="M6245 7650 c3 -5 10 -10 16 -10 5 0 9 5 9 10 0 6 -7 10 -16 10 -8 0
-12 -4 -9 -10z"/>
<path d="M6025 7640 c-3 -5 1 -10 9 -10 8 0 18 5 21 10 3 6 -1 10 -9 10 -8 0
-18 -4 -21 -10z"/>
<path d="M6200 7630 c0 -5 5 -10 10 -10 6 0 10 5 10 10 0 6 -4 10 -10 10 -5 0
-10 -4 -10 -10z"/>
<path d="M5976 7605 c4 -8 11 -15 16 -15 6 0 5 6 -2 15 -7 8 -14 15 -16 15 -2
0 -1 -7 2 -15z"/>
<path d="M6087 7589 c-9 -6 -17 -14 -17 -19 0 -11 27 -7 41 7 15 15 -3 23 -24
12z"/>
<path d="M3845 7490 c-27 -3 -56 -9 -62 -13 -8 -5 -13 -3 -13 5 0 10 -2 10 -9
-1 -11 -18 -110 -46 -178 -50 -7 -1 -24 -12 -39 -26 -16 -15 -30 -21 -34 -15
-3 5 -14 -5 -25 -23 -22 -37 -30 -46 -67 -70 -29 -18 -50 -58 -61 -114 -6 -28
-3 -32 25 -42 24 -9 28 -14 19 -25 -10 -12 -9 -66 4 -105 7 -23 57 -51 92 -51
15 0 44 4 63 10 22 6 38 6 44 0 6 -6 18 -10 27 -10 9 0 20 -7 23 -15 3 -9 22
-23 43 -31 66 -28 183 2 325 82 61 35 93 45 70 22 -20 -20 -14 -30 10 -17 28
15 48 35 48 47 0 6 6 12 14 15 27 11 74 92 86 152 6 33 19 77 28 98 8 20 12
40 9 43 -3 3 -1 17 4 31 11 30 -3 53 -32 53 -11 0 -19 4 -19 10 0 5 -16 16
-36 25 -38 16 -261 25 -359 15z m-84 -422 c18 -16 19 -19 6 -15 -10 4 -23 7
-28 7 -5 0 -9 7 -9 15 0 20 2 19 31 -7z m189 12 c0 -5 -7 -10 -16 -10 -8 0
-12 5 -9 10 3 6 10 10 16 10 5 0 9 -4 9 -10z m-40 -19 c0 -11 -110 -30 -116
-20 -3 5 8 11 23 15 15 3 39 9 53 14 26 8 40 5 40 -9z m-243 -93 c-3 -8 -6 -5
-6 6 -1 11 2 17 5 13 3 -3 4 -12 1 -19z m98 2 c3 -6 -1 -7 -9 -4 -18 7 -21 14
-7 14 6 0 13 -4 16 -10z"/>
<path d="M5886 7269 c-14 -17 -26 -36 -26 -43 0 -21 53 -82 82 -96 16 -6 28
-18 28 -26 0 -8 5 -14 10 -14 12 0 12 -6 -1 66 -14 78 -39 144 -54 144 -7 0
-25 -14 -39 -31z"/>
<path d="M4960 7278 c0 -4 7 -8 15 -8 8 0 15 4 15 8 0 5 -7 9 -15 9 -8 0 -15
-4 -15 -9z"/>
<path d="M6870 7250 c-13 -8 -12 -10 3 -10 9 0 17 5 17 10 0 12 -1 12 -20 0z"/>
<path d="M6951 7244 c0 -11 3 -14 6 -6 3 7 2 16 -1 19 -3 4 -6 -2 -5 -13z"/>
<path d="M6910 7230 c0 -5 5 -10 10 -10 6 0 10 5 10 10 0 6 -4 10 -10 10 -5 0
-10 -4 -10 -10z"/>
<path d="M6933 7068 c2 -7 -3 -18 -12 -25 -14 -11 -13 -12 5 -13 12 0 25 7 28
16 8 21 8 21 -10 28 -10 4 -14 1 -11 -6z"/>
<path d="M6220 7061 c0 -5 7 -11 14 -14 10 -4 13 -1 9 9 -6 15 -23 19 -23 5z"/>
<path d="M6300 7049 c0 -5 5 -7 10 -4 6 3 10 8 10 11 0 2 -4 4 -10 4 -5 0 -10
-5 -10 -11z"/>
<path d="M6706 7042 c-3 -5 1 -15 9 -22 21 -17 27 -9 10 13 -7 10 -16 14 -19
9z"/>
<path d="M6150 6994 c0 -8 5 -12 10 -9 6 4 8 11 5 16 -9 14 -15 11 -15 -7z"/>
<path d="M6095 6990 c-11 -4 -23 -6 -27 -3 -5 2 -8 -3 -8 -11 0 -8 6 -18 13
-22 7 -4 8 -3 4 2 -5 5 6 13 24 19 18 6 29 14 23 17 -5 3 -18 2 -29 -2z"/>
<path d="M5775 6768 c6 -90 14 -128 26 -128 6 0 8 15 5 33 -3 17 -8 62 -11
100 -9 90 -25 86 -20 -5z"/>
<path d="M4565 6763 c-44 -23 -65 -44 -65 -65 0 -19 16 -25 22 -8 2 6 33 7 83
2 78 -7 100 -20 53 -34 -13 -3 -17 -6 -9 -7 11 -1 11 -4 1 -16 -10 -12 -7 -15
15 -21 35 -9 92 1 110 20 19 19 19 30 0 23 -8 -4 -17 -2 -20 3 -4 6 -15 10
-26 10 -19 0 -19 0 1 20 l20 20 -27 35 c-25 32 -33 35 -78 35 -27 -1 -63 -8
-80 -17z"/>
<path d="M4192 6683 c-18 -9 -34 -25 -36 -37 -7 -39 -4 -76 6 -70 12 7 40 -15
32 -27 -8 -13 14 -47 35 -54 10 -3 31 -1 46 5 37 14 48 4 30 -30 -8 -16 -15
-39 -16 -52 -2 -84 -2 -98 3 -104 10 -10 47 6 68 29 11 11 20 18 20 14 0 -4 9
-3 20 3 11 6 20 19 20 29 0 10 6 19 13 18 33 -1 45 5 50 26 4 12 13 31 21 42
14 20 15 20 43 -7 32 -31 73 -36 97 -13 8 8 17 15 20 15 3 0 3 -7 0 -15 -4
-10 0 -15 16 -15 12 0 30 -5 41 -11 15 -7 24 -7 33 0 10 8 17 7 26 -4 7 -8 16
-15 21 -15 17 0 9 35 -11 53 -11 9 -20 24 -20 33 0 10 -6 14 -14 11 -8 -3 -22
1 -33 9 -14 11 -15 13 -2 8 10 -3 20 -1 24 5 3 6 0 11 -9 11 -8 0 -16 3 -18 8
-5 12 -70 41 -106 48 -32 6 -33 6 -26 -20 3 -15 2 -26 -4 -26 -11 0 -53 63
-51 77 3 19 -2 33 -12 33 -5 0 -7 -5 -4 -10 7 -12 -24 -6 -89 17 -45 15 -57
16 -36 3 26 -17 -11 -12 -82 10 -76 24 -75 24 -116 3z"/>
<path d="M5790 6605 c0 -8 5 -15 10 -15 6 0 10 7 10 15 0 8 -4 15 -10 15 -5 0
-10 -7 -10 -15z"/>
<path d="M4790 6494 c0 -4 11 -17 25 -30 23 -21 26 -22 34 -5 7 13 5 20 -10
29 -20 13 -49 16 -49 6z"/>
<path d="M3000 6460 c0 -5 7 -10 15 -10 8 0 15 5 15 10 0 6 -7 10 -15 10 -8 0
-15 -4 -15 -10z"/>
<path d="M4940 6450 c0 -7 -8 -9 -20 -5 -14 5 -20 2 -20 -9 0 -9 -4 -16 -10
-16 -5 0 -10 5 -10 10 0 6 -7 10 -15 10 -8 0 -15 -4 -15 -9 0 -14 64 -33 83
-25 11 4 17 1 17 -9 0 -8 12 -25 28 -36 21 -16 23 -20 10 -21 -10 0 -18 -4
-18 -9 0 -8 -23 -5 -116 14 -27 5 -28 5 -6 -6 31 -17 28 -39 -6 -39 -15 0 -51
-6 -80 -14 -29 -7 -55 -9 -58 -4 -10 16 -25 -3 -18 -24 4 -13 0 -24 -12 -33
-20 -14 -38 -10 -28 7 4 6 -1 8 -15 3 -16 -5 -27 -1 -36 12 -8 10 -15 14 -15
8 0 -6 -35 -10 -84 -11 -80 0 -85 1 -89 23 -2 12 1 24 7 26 6 2 8 8 3 12 -4 5
-20 -3 -35 -16 -15 -14 -38 -31 -52 -37 -14 -7 -44 -30 -68 -52 -50 -47 -79
-63 -93 -54 -6 3 -8 13 -4 21 5 14 3 14 -11 2 -16 -13 -16 -12 -4 11 7 14 18
28 24 33 8 5 6 10 -4 17 -10 6 -22 4 -38 -6 -13 -9 -27 -13 -30 -9 -4 3 0 10
8 15 8 5 12 12 8 15 -3 4 -16 -7 -29 -24 -13 -17 -29 -31 -36 -31 -7 0 -15
-11 -19 -25 -3 -14 -10 -25 -16 -25 -5 0 -6 5 -2 12 4 6 3 8 -3 5 -6 -4 -16
-27 -23 -52 -7 -25 -18 -45 -26 -45 -15 0 -10 -55 12 -113 8 -20 14 -47 14
-58 0 -20 1 -21 25 -5 30 20 33 20 38 -1 3 -12 7 -7 12 15 4 18 10 31 12 28 5
-5 30 15 77 62 18 17 37 32 43 32 5 0 30 14 54 32 86 62 174 97 287 113 58 8
115 21 126 28 22 14 121 32 241 42 53 5 77 3 99 -9 22 -11 35 -12 49 -5 14 8
23 6 39 -8 11 -10 25 -18 31 -19 31 -2 77 -17 77 -25 0 -21 31 -6 45 22 15 28
15 34 -5 92 -25 71 -64 119 -95 115 -12 -1 -34 7 -49 20 -30 23 -56 29 -56 13
0 -5 -12 -4 -27 4 -46 22 -73 27 -73 15z"/>
<path d="M2315 6330 c-3 -5 -1 -10 4 -10 6 0 11 5 11 10 0 6 -2 10 -4 10 -3 0
-8 -4 -11 -10z"/>
<path d="M4207 6296 c-4 -10 -7 -27 -7 -39 0 -20 1 -20 17 -5 13 13 14 22 6
39 -8 20 -10 21 -16 5z"/>
<path d="M4166 6272 c-9 -26 -1 -41 13 -26 5 5 5 18 1 29 -7 19 -7 19 -14 -3z"/>
<path d="M4650 6261 c0 -6 5 -13 10 -16 6 -3 10 1 10 9 0 9 -4 16 -10 16 -5 0
-10 -4 -10 -9z"/>
<path d="M6756 6125 c-6 -18 -36 -20 -36 -3 0 6 -2 9 -5 6 -3 -3 -3 -12 1 -21
6 -16 33 -12 46 7 4 6 12 5 22 -3 9 -8 16 -9 16 -5 0 5 -9 15 -19 21 -15 10
-20 9 -25 -2z"/>
<path d="M3143 6092 c-19 -3 -21 -7 -13 -22 11 -21 0 -33 -23 -24 -8 3 -18 1
-21 -5 -4 -6 9 -13 29 -17 19 -3 35 -12 35 -18 0 -7 10 -12 22 -12 14 1 24 -6
26 -16 3 -14 -4 -18 -30 -19 -18 -1 -25 -3 -15 -6 9 -2 17 -9 17 -14 0 -5 10
-9 22 -9 17 0 19 -3 10 -12 -10 -10 -17 -10 -33 0 -19 12 -19 11 -9 -8 12 -22
25 -26 35 -10 5 8 11 7 21 -1 8 -6 15 -9 15 -5 1 3 2 9 3 14 1 4 5 13 10 20 5
8 4 18 -3 25 -8 8 -11 8 -11 -1 0 -7 -7 -12 -15 -12 -14 0 -15 17 0 65 4 16
-23 50 -32 40 -5 -4 -2 -10 5 -12 18 -7 15 -19 -7 -20 -21 -2 -37 37 -20 48
19 11 5 34 -18 31z"/>
<path d="M5231 6014 c0 -11 3 -14 6 -6 3 7 2 16 -1 19 -3 4 -6 -2 -5 -13z"/>
<path d="M5185 6010 c-3 -5 -1 -10 4 -10 6 0 11 5 11 10 0 6 -2 10 -4 10 -3 0
-8 -4 -11 -10z"/>
<path d="M3114 6002 c-17 -6 -19 -10 -10 -18 10 -9 16 -7 24 7 7 11 11 19 10
18 -2 -1 -13 -4 -24 -7z"/>
<path d="M3581 5944 c0 -11 3 -14 6 -6 3 7 2 16 -1 19 -3 4 -6 -2 -5 -13z"/>
<path d="M3952 5935 c0 -16 2 -22 5 -12 2 9 2 23 0 30 -3 6 -5 -1 -5 -18z"/>
<path d="M3063 5909 c3 -12 0 -22 -9 -26 -17 -6 -19 -26 -1 -20 6 2 17 -3 23
-12 10 -12 12 -6 11 32 -1 33 -6 47 -16 47 -9 0 -11 -7 -8 -21z"/>
<path d="M3113 5913 c-15 -5 -17 -23 -4 -23 5 0 11 7 15 15 3 8 4 15 3 14 -1
0 -8 -3 -14 -6z"/>
<path d="M3250 5907 c0 -7 -9 -18 -20 -25 -11 -7 -20 -20 -20 -29 0 -12 6 -9
25 11 22 24 34 56 20 56 -3 0 -5 -6 -5 -13z"/>
<path d="M3007 5903 c-4 -3 -7 -10 -7 -14 0 -9 39 1 46 12 6 10 -29 12 -39 2z"/>
<path d="M3267 5869 c-9 -6 -17 -16 -17 -24 0 -7 -6 -16 -12 -18 -7 -3 0 -6
16 -6 20 -1 27 3 23 13 -3 7 0 19 6 25 15 15 5 21 -16 10z"/>
<path d="M5950 5870 c0 -5 5 -10 10 -10 6 0 10 5 10 10 0 6 -4 10 -10 10 -5 0
-10 -4 -10 -10z"/>
<path d="M3305 5840 c-3 -6 1 -7 9 -4 18 7 21 14 7 14 -6 0 -13 -4 -16 -10z"/>
<path d="M6680 5798 c-8 -13 -13 -26 -12 -30 1 -5 -5 -8 -13 -8 -21 0 -19 -17
4 -29 15 -9 20 -7 24 9 5 21 27 28 27 10 0 -7 6 -7 19 0 28 14 28 14 36 -27 4
-21 10 -32 12 -25 11 30 -8 64 -45 79 -26 12 -32 18 -19 21 22 5 22 22 -1 22
-9 0 -24 -10 -32 -22z"/>
<path d="M4878 5740 c2 -17 8 -33 13 -36 10 -6 11 11 3 44 -9 33 -21 27 -16
-8z"/>
<path d="M6595 5760 c3 -5 10 -10 16 -10 5 0 9 5 9 10 0 6 -7 10 -16 10 -8 0
-12 -4 -9 -10z"/>
<path d="M6792 5717 c2 -24 8 -33 26 -35 12 -2 20 -8 17 -13 -4 -5 0 -9 7 -9
17 -1 62 -39 55 -47 -11 -11 13 -43 33 -43 11 0 20 -6 20 -12 0 -10 2 -10 8 0
6 9 21 11 50 6 48 -8 72 6 72 42 0 30 -28 45 -74 37 -33 -5 -41 -2 -72 28 -19
18 -34 39 -34 46 0 17 -11 16 -46 -2 -16 -8 -35 -15 -41 -15 -20 0 -15 28 5
32 14 3 12 5 -6 10 -21 6 -23 4 -20 -25z m88 -37 c0 -5 -2 -10 -4 -10 -3 0 -8
5 -11 10 -3 6 -1 10 4 10 6 0 11 -4 11 -10z"/>
<path d="M4950 5729 c0 -5 5 -7 10 -4 6 3 10 8 10 11 0 2 -4 4 -10 4 -5 0 -10
-5 -10 -11z"/>
<path d="M6615 5730 c-3 -5 1 -10 10 -10 9 0 13 5 10 10 -3 6 -8 10 -10 10 -2
0 -7 -4 -10 -10z"/>
<path d="M3130 5649 c0 -5 5 -7 10 -4 6 3 10 8 10 11 0 2 -4 4 -10 4 -5 0 -10
-5 -10 -11z"/>
<path d="M3167 5644 c3 -7 -1 -14 -8 -14 -7 0 -10 -2 -7 -5 7 -7 38 5 38 15 0
4 -7 10 -14 13 -10 4 -13 1 -9 -9z"/>
<path d="M2800 5632 c0 -16 41 -33 58 -23 16 10 16 10 0 11 -10 0 -18 5 -18
10 0 6 -9 10 -20 10 -11 0 -20 -3 -20 -8z"/>
<path d="M3465 5630 c3 -5 8 -10 11 -10 2 0 4 5 4 10 0 6 -5 10 -11 10 -5 0
-7 -4 -4 -10z"/>
<path d="M3107 5563 c-4 -3 -7 -11 -7 -17 0 -6 5 -5 12 2 6 6 9 14 7 17 -3 3
-9 2 -12 -2z"/>
<path d="M3675 5489 c-9 -14 -2 -20 14 -10 8 6 9 11 3 15 -6 3 -14 1 -17 -5z"/>
<path d="M2385 5387 c-17 -13 -17 -14 4 -20 16 -4 21 -1 21 14 0 23 -1 23 -25
6z"/>
<path d="M2380 5308 c0 -17 3 -28 8 -24 10 10 10 56 0 56 -4 0 -8 -14 -8 -32z"/>
<path d="M3437 5333 c-4 -3 -7 -16 -7 -27 1 -21 1 -21 15 -2 8 11 15 23 15 28
0 10 -14 11 -23 1z"/>
<path d="M6936 5317 c-21 -10 -36 -21 -32 -24 3 -3 11 -1 18 4 7 5 30 9 51 8
40 -2 47 4 20 21 -14 7 -28 5 -57 -9z"/>
<path d="M2760 5271 c-7 -14 -7 -22 1 -26 13 -9 22 0 24 25 2 25 -11 26 -25 1z"/>
<path d="M3450 5280 c0 -5 5 -10 10 -10 6 0 10 5 10 10 0 6 -4 10 -10 10 -5 0
-10 -4 -10 -10z"/>
<path d="M6939 5281 c12 -8 12 -12 2 -25 -8 -9 -9 -16 -4 -16 9 0 43 36 43 45
0 3 -12 5 -27 5 -21 0 -24 -3 -14 -9z"/>
<path d="M3403 5263 c-7 -2 -13 -9 -13 -15 0 -6 6 -6 15 2 8 7 22 10 30 6 9
-3 13 -2 10 4 -7 11 -22 12 -42 3z"/>
<path d="M6398 5263 c7 -3 16 -2 19 1 4 3 -2 6 -13 5 -11 0 -14 -3 -6 -6z"/>
<path d="M6355 5240 c-3 -5 -1 -10 4 -10 6 0 11 5 11 10 0 6 -2 10 -4 10 -3 0
-8 -4 -11 -10z"/>
<path d="M2370 5229 c0 -5 5 -7 10 -4 6 3 10 8 10 11 0 2 -4 4 -10 4 -5 0 -10
-5 -10 -11z"/>
<path d="M3124 5216 c-3 -8 -4 -23 -1 -33 4 -16 6 -15 12 5 4 12 12 22 17 22
5 0 6 5 3 10 -9 14 -25 12 -31 -4z"/>
<path d="M6943 5213 c-24 -9 -14 -40 17 -53 17 -7 33 -10 37 -6 3 3 1 6 -5 6
-18 0 -44 31 -38 46 3 8 4 14 3 13 -1 0 -8 -3 -14 -6z"/>
<path d="M5299 5183 c-13 -16 -12 -17 4 -4 9 7 17 15 17 17 0 8 -8 3 -21 -13z"/>
<path d="M2553 5173 c9 -9 20 -13 24 -9 4 4 1 11 -7 16 -25 16 -35 11 -17 -7z"/>
<path d="M3323 5169 c1 -10 7 -19 14 -19 18 0 16 27 -1 33 -10 4 -14 0 -13
-14z"/>
<path d="M2331 5180 c-2 -3 -4 -14 -5 -25 -2 -11 -9 -40 -15 -64 -7 -23 -10
-46 -7 -49 3 -3 9 9 12 26 4 20 13 32 23 33 9 1 22 2 30 3 18 1 38 33 28 43
-5 4 -12 1 -17 -6 -11 -19 -38 -7 -43 21 -2 13 -5 21 -6 18z"/>
<path d="M2508 5172 c-10 -2 -18 -12 -18 -23 0 -14 7 -19 25 -19 14 0 25 -5
25 -11 0 -5 5 -7 11 -3 8 4 2 12 -16 22 -21 11 -25 16 -14 23 17 10 10 17 -13
11z"/>
<path d="M5200 5149 c0 -5 5 -7 10 -4 6 3 10 8 10 11 0 2 -4 4 -10 4 -5 0 -10
-5 -10 -11z"/>
<path d="M2425 5115 c-21 -19 -35 -38 -31 -42 4 -4 18 4 30 20 12 15 27 27 34
27 7 0 12 7 12 15 0 20 1 20 -45 -20z"/>
<path d="M3000 5141 c0 -5 5 -13 10 -16 6 -3 10 -2 10 4 0 5 -4 13 -10 16 -5
3 -10 2 -10 -4z"/>
<path d="M2481 5111 c-8 -5 -12 -15 -9 -23 7 -17 -17 -52 -31 -44 -5 4 -11 -4
-13 -16 -2 -14 -12 -24 -28 -28 -18 -4 -25 -13 -25 -30 0 -21 -5 -25 -27 -24
-24 0 -28 -4 -27 -25 1 -18 3 -20 6 -8 2 9 9 15 14 12 14 -9 11 -35 -5 -35 -8
0 -18 -18 -24 -40 -5 -22 -6 -40 -2 -40 5 0 10 5 12 11 2 6 15 9 28 7 l25 -4
-28 -14 c-17 -8 -26 -19 -22 -28 3 -10 0 -12 -10 -8 -10 3 -15 -1 -15 -14 0
-20 29 -33 72 -32 15 0 30 -4 33 -9 4 -5 11 -9 16 -9 6 0 7 5 4 10 -4 6 -2 17
5 25 8 10 6 17 -11 29 -12 8 -27 12 -32 9 -5 -3 -1 -11 9 -16 18 -10 17 -11
-6 -17 -31 -8 -50 -2 -50 16 0 17 17 18 23 2 3 -7 6 -3 6 10 1 17 7 22 29 22
19 0 23 3 13 9 -11 7 -10 14 8 40 24 33 18 40 -16 16 -19 -13 -21 -13 -26 7
-8 29 22 118 39 118 14 0 80 60 67 60 -4 1 6 12 22 26 17 15 22 24 13 21 -10
-4 -18 0 -20 8 -2 10 -8 12 -17 6z m-128 -257 c-4 -10 -9 -12 -15 -6 -12 12
-1 35 12 27 5 -3 6 -13 3 -21z"/>
<path d="M2582 5095 c0 -16 2 -22 5 -12 2 9 2 23 0 30 -3 6 -5 -1 -5 -18z"/>
<path d="M2975 5110 c27 -12 43 -12 25 0 -8 5 -22 9 -30 9 -10 0 -8 -3 5 -9z"/>
<path d="M6950 5103 c0 -14 -6 -23 -15 -23 -9 0 -15 -9 -15 -22 0 -12 1 -19 3
-17 1 2 12 15 24 29 16 18 19 30 13 40 -8 12 -10 10 -10 -7z"/>
<path d="M2960 5090 c0 -5 5 -10 10 -10 6 0 10 5 10 10 0 6 -4 10 -10 10 -5 0
-10 -4 -10 -10z"/>
<path d="M2716 5081 c-4 -7 -5 -15 -2 -18 9 -9 19 4 14 18 -4 11 -6 11 -12 0z"/>
<path d="M2800 5057 c0 -18 -5 -38 -12 -45 -21 -21 0 -24 23 -3 27 25 47 27
55 6 8 -19 34 -20 34 -1 0 14 -28 25 -70 27 -20 0 -21 2 -7 7 16 7 16 9 -3 25
-19 16 -20 16 -20 -16z"/>
<path d="M2863 5075 c-3 -9 -3 -18 -1 -21 3 -3 8 4 11 16 6 23 -1 27 -10 5z"/>
<path d="M2420 5070 c0 -5 4 -10 9 -10 6 0 13 5 16 10 3 6 -1 10 -9 10 -9 0
-16 -4 -16 -10z"/>
<path d="M2520 5051 c13 -9 13 -11 -2 -11 -10 0 -18 -5 -18 -10 0 -14 72 -8
77 6 2 6 -2 11 -9 11 -7 0 -24 3 -38 7 -19 6 -21 5 -10 -3z"/>
<path d="M6835 5050 c-3 -5 -1 -10 4 -10 6 0 11 5 11 10 0 6 -2 10 -4 10 -3 0
-8 -4 -11 -10z"/>
<path d="M2751 5031 c-13 -23 -14 -31 -3 -31 13 0 32 39 22 45 -5 3 -14 -3
-19 -14z"/>
<path d="M5010 5040 c0 -5 5 -10 10 -10 6 0 10 5 10 10 0 6 -4 10 -10 10 -5 0
-10 -4 -10 -10z"/>
<path d="M6870 5041 c0 -6 7 -11 15 -11 19 0 19 -19 -1 -50 l-16 -25 20 23
c11 12 25 22 31 22 6 0 11 5 11 10 0 6 7 10 16 10 10 0 13 -6 10 -17 -3 -10
-2 -24 2 -30 5 -9 13 -1 24 23 14 31 14 35 1 30 -9 -4 -21 -2 -27 2 -6 5 -18
10 -26 10 -8 0 -25 4 -37 7 -15 5 -23 3 -23 -4z"/>
<path d="M2661 5019 c-11 -18 -11 -23 1 -30 17 -11 35 -11 42 0 4 5 -3 7 -14
4 -23 -6 -25 0 -10 28 14 26 -2 24 -19 -2z"/>
<path d="M6840 5020 c0 -5 5 -10 10 -10 6 0 10 5 10 10 0 6 -4 10 -10 10 -5 0
-10 -4 -10 -10z"/>
<path d="M2500 4995 c14 -7 27 -11 30 -9 6 7 -22 24 -40 23 -9 0 -5 -6 10 -14z"/>
<path d="M2604 4968 c-1 -48 -18 -82 -39 -75 -6 3 -12 -4 -12 -14 -2 -16 2
-17 17 -9 25 14 27 13 33 -10 3 -11 1 -20 -4 -20 -5 0 -9 -4 -9 -10 0 -5 6
-10 14 -10 8 0 17 -7 20 -16 9 -24 7 -28 -8 -15 -11 9 -15 8 -20 -5 -9 -24 -7
-52 5 -60 8 -4 9 1 4 16 -5 16 -4 21 6 18 8 -3 25 -1 38 4 40 15 58 2 65 -47
7 -42 26 -73 26 -42 0 16 57 29 66 16 5 -8 -23 -39 -36 -39 -4 0 -6 -10 -2
-22 3 -13 1 -19 -5 -15 -17 10 -22 -30 -7 -50 11 -14 13 -15 14 -3 0 12 3 11
11 -3 5 -9 7 -22 4 -27 -10 -16 11 -12 25 5 10 12 16 13 27 4 19 -16 27 -5 12
18 -8 13 -20 18 -34 15 -30 -5 -42 16 -21 36 16 16 17 16 10 0 -3 -11 -1 -18
5 -18 6 0 11 6 11 14 0 18 35 27 49 13 8 -8 11 -8 11 1 0 7 9 16 19 20 20 7
20 7 1 32 l-20 25 0 -27 c0 -20 -4 -26 -15 -22 -10 4 -13 13 -10 25 5 15 1 19
-15 19 -19 0 -18 3 11 31 17 17 29 33 26 35 -8 8 -47 -20 -47 -33 0 -7 -4 -13
-10 -13 -5 0 -10 5 -10 11 0 6 -7 8 -17 5 -9 -4 -20 -1 -24 6 -6 10 -12 8 -23
-7 -19 -26 -34 -11 -17 17 11 17 11 22 -1 29 -10 7 -10 9 2 9 10 0 7 6 -9 19
-22 17 -25 26 -23 84 1 63 1 64 -23 59 -14 -2 -25 -10 -25 -17 0 -8 8 -11 21
-8 21 6 21 5 3 -15 -9 -12 -21 -19 -26 -16 -4 3 -8 -2 -8 -10 0 -20 -16 -21
-23 -2 -3 8 2 17 11 21 16 7 16 8 1 14 -13 4 -14 12 -8 29 7 19 14 22 31 16
20 -6 21 -5 9 9 -7 9 -16 16 -19 15 -20 -2 -31 4 -34 20 -2 9 -4 -4 -4 -30z
m76 -98 c0 -5 -7 -10 -16 -10 -8 0 -12 5 -9 10 3 6 10 10 16 10 5 0 9 -4 9
-10z m-19 -40 c15 8 19 7 19 -5 0 -8 -4 -15 -9 -15 -5 0 -16 -3 -25 -6 -12 -5
-16 0 -15 17 0 13 3 18 6 12 3 -9 10 -10 24 -3z"/>
<path d="M2315 4990 c-8 -13 3 -30 18 -29 9 0 9 2 0 5 -7 3 -9 12 -6 20 6 16
-3 19 -12 4z"/>
<path d="M2810 4975 c0 -8 -11 -34 -25 -58 l-24 -44 25 0 c14 0 31 -6 37 -12
8 -8 5 -11 -14 -11 -27 0 -47 -37 -41 -77 3 -23 42 -34 42 -13 0 6 -7 10 -15
10 -8 0 -15 6 -15 14 0 26 17 26 30 1 7 -14 17 -25 21 -25 10 0 23 60 15 67
-3 4 -6 -4 -6 -16 0 -12 -4 -19 -10 -16 -14 9 -12 43 3 48 26 9 44 -4 39 -29
-3 -14 0 -24 8 -24 7 0 10 11 9 28 -2 15 1 33 5 41 7 10 4 12 -13 6 -13 -4
-21 -2 -21 5 0 7 -7 10 -15 6 -8 -3 -15 -1 -15 4 0 6 -8 10 -17 10 -13 0 -11
5 9 18 19 11 26 22 22 34 -3 10 -1 18 5 18 17 0 26 -51 10 -61 -10 -6 -8 -9 9
-9 18 0 22 6 22 29 0 17 5 33 10 36 6 3 10 10 10 16 0 13 -28 11 -32 -2 -3 -8
-10 -6 -20 5 -21 20 -48 21 -48 1z m15 -45 c-3 -5 -10 -10 -16 -10 -5 0 -9 5
-9 10 0 6 7 10 16 10 8 0 12 -4 9 -10z"/>
<path d="M2740 4965 c-14 -16 -10 -18 14 -9 9 3 16 10 16 15 0 14 -16 11 -30
-6z"/>
<path d="M2400 4960 c0 -5 10 -10 23 -10 18 0 19 2 7 10 -19 13 -30 13 -30 0z"/>
<path d="M6907 4963 c-4 -3 -7 -13 -7 -22 0 -11 3 -10 15 5 13 18 14 18 15 1
0 -10 4 -16 10 -12 5 3 7 12 3 20 -5 16 -25 20 -36 8z"/>
<path d="M1630 4949 c0 -5 5 -7 10 -4 6 3 10 8 10 11 0 2 -4 4 -10 4 -5 0 -10
-5 -10 -11z"/>
<path d="M2408 4928 c-18 -15 -31 -48 -18 -48 5 0 18 14 30 30 22 31 16 40
-12 18z"/>
<path d="M2947 4933 c-14 -13 -6 -20 18 -15 14 2 22 8 19 13 -6 11 -28 12 -37
2z"/>
<path d="M2730 4910 c0 -5 7 -10 15 -10 8 0 15 5 15 10 0 6 -7 10 -15 10 -8 0
-15 -4 -15 -10z"/>
<path d="M6924 4900 c7 -8 11 -24 8 -34 -3 -15 -6 -16 -13 -5 -6 10 -9 5 -9
-15 0 -23 3 -27 12 -18 17 17 39 15 32 -3 -5 -11 -2 -13 10 -9 8 3 29 -1 45
-9 29 -14 41 -13 41 5 0 4 -7 8 -16 8 -8 0 -12 5 -9 10 3 6 -1 10 -9 10 -9 0
-16 5 -16 11 0 6 7 9 15 5 21 -8 45 3 45 21 0 11 -3 13 -12 5 -20 -16 -85 -25
-92 -13 -7 10 27 16 63 11 11 -1 11 2 -2 14 -18 18 -37 21 -37 6 0 -5 -4 -10
-10 -10 -5 0 -10 6 -10 13 0 6 -11 12 -24 12 -21 0 -23 -2 -12 -15z"/>
<path d="M2480 4869 c0 -5 5 -7 10 -4 6 3 10 8 10 11 0 2 -4 4 -10 4 -5 0 -10
-5 -10 -11z"/>
<path d="M2510 4850 c0 -5 4 -10 10 -10 18 0 48 -33 43 -46 -3 -8 0 -14 6 -14
6 0 11 9 11 20 0 11 -5 20 -11 20 -8 0 -7 6 2 16 12 15 11 16 -9 10 -13 -5
-22 -3 -22 3 0 6 -7 11 -15 11 -8 0 -15 -4 -15 -10z"/>
<path d="M2026 4843 c-3 -4 1 -17 9 -30 9 -13 13 -33 10 -43 -7 -24 1 -26 21
-6 9 10 11 17 4 21 -8 5 -7 11 1 21 9 11 7 14 -10 14 -12 0 -20 4 -16 9 6 11
-9 23 -19 14z"/>
<path d="M4598 4843 c6 -2 18 -2 25 0 6 3 1 5 -13 5 -14 0 -19 -2 -12 -5z"/>
<path d="M3036 4824 c-4 -9 -4 -19 -1 -22 2 -3 7 3 11 12 4 9 4 19 1 22 -2 3
-7 -3 -11 -12z"/>
<path d="M4683 4810 c4 -15 0 -20 -16 -20 -21 -1 -21 -1 3 -16 24 -14 22 -14
-30 -8 -30 3 -61 11 -67 16 -9 7 -13 7 -13 0 0 -9 23 -23 45 -28 30 -6 55 -17
55 -25 0 -5 15 -9 33 -9 17 0 41 -7 51 -15 31 -23 153 -20 191 5 27 18 28 20
9 20 -12 0 -24 7 -28 15 -3 8 -13 15 -22 15 -10 0 -26 7 -35 16 -10 9 -29 18
-41 20 -90 13 -109 18 -114 25 -10 17 -26 9 -21 -11z"/>
<path d="M1930 4810 c0 -5 5 -10 10 -10 6 0 10 5 10 10 0 6 -4 10 -10 10 -5 0
-10 -4 -10 -10z"/>
<path d="M2448 4813 c7 -3 16 -2 19 1 4 3 -2 6 -13 5 -11 0 -14 -3 -6 -6z"/>
<path d="M2516 4805 c4 -8 10 -15 15 -15 4 0 6 7 3 15 -4 8 -10 15 -15 15 -4
0 -6 -7 -3 -15z"/>
<path d="M2445 4790 c-3 -5 1 -10 10 -10 9 0 13 5 10 10 -3 6 -8 10 -10 10 -2
0 -7 -4 -10 -10z"/>
<path d="M2488 4793 c7 -3 16 -2 19 1 4 3 -2 6 -13 5 -11 0 -14 -3 -6 -6z"/>
<path d="M6902 4779 c4 -9 1 -22 -5 -28 -8 -8 -8 -11 0 -11 6 0 16 6 22 14 9
10 7 17 -6 27 -15 12 -16 12 -11 -2z"/>
<path d="M6940 4783 c0 -5 5 -15 11 -23 9 -13 10 -12 5 2 -3 12 -1 15 10 11 8
-3 13 -12 10 -19 -6 -16 10 -19 19 -4 3 6 0 17 -9 25 -15 16 -46 21 -46 8z"/>
<path d="M1900 4751 c0 -6 5 -13 10 -16 6 -3 10 1 10 9 0 9 -4 16 -10 16 -5 0
-10 -4 -10 -9z"/>
<path d="M1949 4743 c-13 -16 -12 -17 4 -4 9 7 17 15 17 17 0 8 -8 3 -21 -13z"/>
<path d="M2660 4740 c0 -5 5 -10 10 -10 6 0 10 5 10 10 0 6 -4 10 -10 10 -5 0
-10 -4 -10 -10z"/>
<path d="M6916 4731 c-4 -5 3 -7 14 -4 23 6 26 13 6 13 -8 0 -17 -4 -20 -9z"/>
<path d="M7760 4720 c0 -5 12 -10 28 -10 21 0 24 2 12 10 -20 13 -40 13 -40 0z"/>
<path d="M2666 4711 c-3 -5 -4 -27 -2 -50 2 -23 0 -41 -5 -41 -5 0 -9 5 -9 11
0 6 -7 8 -17 5 -15 -6 -15 -5 1 13 10 11 16 26 13 33 -4 8 -8 5 -12 -9 -4 -13
-11 -23 -16 -23 -12 0 -12 -37 0 -44 5 -4 12 0 14 6 3 7 3 -4 0 -24 -5 -34 -3
-38 16 -38 13 0 19 -4 16 -10 -10 -16 16 -42 33 -35 12 4 13 3 2 -10 -16 -20
-5 -32 14 -16 8 7 24 10 36 6 16 -5 20 -2 20 15 0 12 -4 18 -10 15 -6 -4 -28
-4 -48 0 -34 5 -37 8 -36 38 1 18 2 37 4 42 1 6 1 31 0 58 -1 28 3 47 9 47 6
0 11 5 11 10 0 12 -27 13 -34 1z"/>
<path d="M6870 4705 c0 -8 2 -15 4 -15 2 0 6 7 10 15 3 8 1 15 -4 15 -6 0 -10
-7 -10 -15z"/>
<path d="M2587 4680 c-4 -15 -11 -21 -20 -17 -10 4 -17 -3 -20 -21 -6 -33 2
-44 10 -14 3 13 11 21 17 19 19 -6 38 21 28 39 -8 14 -10 13 -15 -6z"/>
<path d="M2998 4693 c7 -3 16 -2 19 1 4 3 -2 6 -13 5 -11 0 -14 -3 -6 -6z"/>
<path d="M1591 4684 c-1 -6 6 -17 14 -24 12 -10 15 -9 15 4 0 10 -4 15 -9 12
-5 -4 -12 0 -14 6 -4 8 -6 9 -6 2z"/>
<path d="M2380 4675 c0 -11 -8 -13 -32 -9 -24 4 -29 3 -18 -4 8 -6 26 -12 40
-14 20 -2 26 2 28 20 2 12 -1 22 -7 22 -6 0 -11 -7 -11 -15z"/>
<path d="M6965 4680 c-3 -5 1 -10 9 -10 8 0 18 5 21 10 3 6 -1 10 -9 10 -8 0
-18 -4 -21 -10z"/>
<path d="M7033 4678 c-26 -13 -38 -38 -18 -38 8 0 15 7 15 15 0 8 4 15 9 15 5
0 7 -9 4 -20 -3 -11 -1 -20 3 -20 5 0 10 14 11 30 1 17 1 30 0 29 -1 0 -12 -5
-24 -11z"/>
<path d="M2760 4670 c0 -5 5 -10 11 -10 5 0 7 5 4 10 -3 6 -8 10 -11 10 -2 0
-4 -4 -4 -10z"/>
<path d="M1857 4634 c3 -7 9 -14 14 -14 14 0 10 17 -5 23 -10 4 -13 1 -9 -9z"/>
<path d="M2313 4626 c0 -18 3 -24 9 -18 7 7 7 16 0 28 -8 14 -9 13 -9 -10z"/>
<path d="M2470 4640 c0 -5 7 -10 16 -10 8 0 12 5 9 10 -3 6 -10 10 -16 10 -5
0 -9 -4 -9 -10z"/>
<path d="M2940 4640 c-12 -8 -11 -10 8 -10 12 0 22 5 22 10 0 13 -11 13 -30 0z"/>
<path d="M1580 4629 c-13 -7 -12 -9 3 -9 9 0 17 -5 17 -11 0 -5 -4 -7 -10 -4
-5 3 -10 1 -10 -4 0 -6 7 -11 15 -11 8 0 15 9 15 19 0 25 -12 32 -30 20z"/>
<path d="M2410 4620 c0 -11 4 -20 9 -20 11 0 22 26 14 34 -12 12 -23 5 -23
-14z"/>
<path d="M1830 4615 c-8 -9 -8 -15 -2 -15 12 0 26 19 19 26 -2 2 -10 -2 -17
-11z"/>
<path d="M2510 4605 c0 -8 4 -15 10 -15 5 0 7 7 4 15 -4 8 -8 15 -10 15 -2 0
-4 -7 -4 -15z"/>
<path d="M1641 4581 l-22 -31 27 10 c19 8 30 8 38 0 7 -7 2 -10 -16 -10 -26 0
-56 -24 -41 -33 4 -2 25 3 46 13 34 15 36 18 21 31 -9 7 -19 22 -23 33 -7 17
-10 16 -30 -13z"/>
<path d="M2465 4581 c4 -20 3 -31 -4 -31 -19 0 -12 -25 10 -38 12 -8 18 -9 14
-3 -4 7 3 11 17 11 16 0 19 -3 10 -9 -11 -7 -10 -10 3 -15 23 -9 25 -8 25 9 0
9 -11 20 -24 25 -15 5 -27 20 -31 39 -4 17 -11 34 -17 37 -7 4 -8 -4 -3 -25z"/>
<path d="M2355 4590 c-8 -13 5 -13 25 0 13 8 13 10 -2 10 -9 0 -20 -4 -23 -10z"/>
<path d="M2592 4580 c-10 -17 -10 -20 3 -20 8 0 15 9 15 20 0 11 -1 20 -3 20
-1 0 -8 -9 -15 -20z"/>
<path d="M1826 4555 c-3 -13 -19 -31 -34 -40 -26 -14 -26 -14 23 -8 28 3 58 5
68 5 10 0 17 7 17 19 0 10 -4 19 -10 19 -5 0 -10 -4 -10 -8 0 -4 -9 -8 -20 -9
-16 -1 -20 3 -15 17 3 10 2 21 -4 24 -5 3 -12 -5 -15 -19z"/>
<path d="M2545 4570 c-3 -5 1 -10 9 -10 9 0 16 5 16 10 0 6 -4 10 -9 10 -6 0
-13 -4 -16 -10z"/>
<path d="M2415 4560 c3 -5 11 -10 16 -10 6 0 7 5 4 10 -3 6 -11 10 -16 10 -6
0 -7 -4 -4 -10z"/>
<path d="M1725 4550 c-3 -5 -1 -10 4 -10 6 0 11 5 11 10 0 6 -2 10 -4 10 -3 0
-8 -4 -11 -10z"/>
<path d="M2030 4550 c0 -5 4 -10 9 -10 6 0 13 5 16 10 3 6 -1 10 -9 10 -9 0
-16 -4 -16 -10z"/>
<path d="M2940 4540 c0 -5 -10 -10 -22 -10 -25 0 -15 -14 17 -24 16 -5 20 -1
20 19 0 14 -3 25 -7 25 -5 0 -8 -4 -8 -10z"/>
<path d="M4745 4530 c-3 -5 1 -10 10 -10 9 0 13 5 10 10 -3 6 -8 10 -10 10 -2
0 -7 -4 -10 -10z"/>
<path d="M2840 4496 c0 -8 -7 -22 -16 -31 -21 -20 -13 -28 20 -19 21 5 26 12
26 35 0 19 -5 29 -15 29 -8 0 -15 -6 -15 -14z"/>
<path d="M1730 4485 c-19 -23 -8 -25 14 -4 11 11 15 19 9 19 -6 0 -16 -7 -23
-15z"/>
<path d="M2882 4483 c4 -21 49 -25 56 -4 3 9 -1 11 -17 6 -12 -4 -21 -2 -21 4
0 6 -5 11 -11 11 -6 0 -9 -8 -7 -17z"/>
<path d="M2400 4480 c0 -5 7 -7 15 -4 8 4 15 8 15 10 0 2 -7 4 -15 4 -8 0 -15
-4 -15 -10z"/>
<path d="M2386 4452 c-3 -6 -1 -14 5 -17 15 -10 25 3 12 16 -7 7 -13 7 -17 1z"/>
<path d="M1624 4435 c-9 -22 1 -29 15 -11 8 10 9 16 1 21 -5 3 -13 -1 -16 -10z"/>
<path d="M2875 4439 c-7 -11 47 -21 57 -11 6 6 -2 11 -22 14 -17 3 -33 1 -35
-3z"/>
<path d="M4810 4195 c0 -21 5 -25 30 -25 17 0 30 5 30 11 0 6 -7 8 -16 5 -11
-4 -18 1 -21 14 -7 28 -23 25 -23 -5z"/>
<path d="M1931 4174 c0 -11 3 -14 6 -6 3 7 2 16 -1 19 -3 4 -6 -2 -5 -13z"/>
<path d="M1905 4151 c-3 -5 2 -11 10 -15 8 -3 17 -1 20 3 3 5 -2 11 -10 15 -8
3 -17 1 -20 -3z"/>
<path d="M5048 4153 c17 -2 47 -2 65 0 17 2 3 4 -33 4 -36 0 -50 -2 -32 -4z"/>
<path d="M1892 4102 c-17 -11 31 -34 53 -26 22 9 18 23 -5 17 -11 -3 -20 0
-20 6 0 13 -10 14 -28 3z"/>
<path d="M1657 4083 c-4 -3 -7 -14 -7 -24 0 -10 -8 -20 -17 -22 -14 -4 -13 -5
3 -6 16 -1 24 7 28 25 7 27 4 39 -7 27z"/>
<path d="M1650 4011 c0 -4 13 -8 30 -7 39 1 39 16 0 16 -16 0 -30 -4 -30 -9z"/>
<path d="M1680 3920 c-9 -6 -10 -10 -3 -10 6 0 15 5 18 10 8 12 4 12 -15 0z"/>
<path d="M2305 7520 c-4 -6 5 -10 20 -10 15 0 24 4 20 10 -3 6 -12 10 -20 10
-8 0 -17 -4 -20 -10z"/>
<path d="M7840 6449 c0 -5 5 -7 10 -4 6 3 10 8 10 11 0 2 -4 4 -10 4 -5 0 -10
-5 -10 -11z"/>
<path d="M3800 5040 c0 -5 7 -10 16 -10 8 0 12 5 9 10 -3 6 -10 10 -16 10 -5
0 -9 -4 -9 -10z"/>
<path d="M3290 4820 c0 -5 5 -10 10 -10 6 0 10 5 10 10 0 6 -4 10 -10 10 -5 0
-10 -4 -10 -10z"/>
<path d="M8665 4730 c-3 -5 -1 -10 4 -10 6 0 11 5 11 10 0 6 -2 10 -4 10 -3 0
-8 -4 -11 -10z"/>
<path d="M7978 4323 c7 -3 16 -2 19 1 4 3 -2 6 -13 5 -11 0 -14 -3 -6 -6z"/>
<path d="M8081 4304 c0 -11 3 -14 6 -6 3 7 2 16 -1 19 -3 4 -6 -2 -5 -13z"/>
<path d="M7997 4289 c7 -7 15 -10 18 -7 3 3 -2 9 -12 12 -14 6 -15 5 -6 -5z"/>
<path d="M9210 3670 c19 -13 30 -13 30 0 0 6 -10 10 -22 10 -19 0 -20 -2 -8
-10z"/>
<path d="M9182 3543 c9 -2 19 -14 21 -26 4 -18 5 -17 6 6 1 22 -3 27 -21 26
-16 -1 -18 -3 -6 -6z"/>
<path d="M4804 3485 c-9 -13 -14 -30 -11 -37 4 -9 6 -8 6 3 2 28 37 52 71 47
16 -3 30 -1 30 4 0 4 -18 8 -40 8 -31 0 -43 -5 -56 -25z"/>
<path d="M4827 3463 c-12 -11 -8 -23 8 -23 8 0 15 7 15 15 0 16 -12 20 -23 8z"/>
<path d="M4870 3455 c0 -9 6 -12 15 -9 8 4 15 10 15 15 0 5 -7 9 -15 9 -8 0
-15 -7 -15 -15z"/>
<path d="M4872 3429 c-39 -8 -46 -14 -37 -29 5 -8 10 -8 20 0 7 6 20 8 29 4
10 -4 18 0 22 10 9 22 5 24 -34 15z"/>
<path d="M1118 3198 c5 -5 16 -8 23 -6 8 3 3 7 -10 11 -17 4 -21 3 -13 -5z"/>
<path d="M825 3140 c3 -5 8 -10 11 -10 2 0 4 5 4 10 0 6 -5 10 -11 10 -5 0 -7
-4 -4 -10z"/>
<path d="M5001 2808 c-44 -12 -36 -18 14 -9 22 3 36 9 30 12 -5 3 -25 2 -44
-3z"/>
<path d="M4995 2770 c-8 -13 4 -32 16 -25 12 8 12 35 0 35 -6 0 -13 -4 -16
-10z"/>
<path d="M8016 221 c-4 -7 -5 -15 -2 -18 9 -9 19 4 14 18 -4 11 -6 11 -12 0z"/>
</g>
</svg>
